<?xml version="1.0" encoding="UTF-8"?>
<svg version="1.1" xmlns="http://www.w3.org/2000/svg" width="60" height="60">
<path d="M0 0 C7.38423483 4.50196009 12.54565056 10.92917609 15.375 19.0625 C16.66547092 27.62954236 16.65351723 37.4125029 12.05859375 44.94921875 C6.93342722 51.38243242 0.72308177 57.1062756 -7.7109375 58.37670898 C-16.98411337 59.03300598 -26.05696622 59.09174687 -33.625 53.0625 C-39.76140823 47.41193476 -44.48470943 41.39843293 -45.09375 32.79296875 C-45.32785576 22.52143833 -44.7812261 14.66206517 -37.53515625 6.79296875 C-27.64926916 -2.58594978 -12.80066946 -5.75333355 0 0 Z " fill="#7DA826" transform="translate(44.625,1.9375)"/>
<path d="M0 0 C0.66 0 1.32 0 2 0 C2.50757862 1.41396902 3.00574925 2.83131729 3.5 4.25 C3.7784375 5.03890625 4.056875 5.8278125 4.34375 6.640625 C5 9 5 9 5 13 C9.95 13 14.9 13 20 13 C20 13.66 20 14.32 20 15 C17.8125 16.7265625 17.8125 16.7265625 15 18.625 C13.6078125 19.57246094 13.6078125 19.57246094 12.1875 20.5390625 C11.1046875 21.26222656 11.1046875 21.26222656 10 22 C10.48724985 26.75522301 10.48724985 26.75522301 12.125 31.1875 C13.25386735 33.52586807 12.71326162 34.57390589 12 37 C11.40832031 36.48308594 10.81664063 35.96617188 10.20703125 35.43359375 C9.41683594 34.77488281 8.62664063 34.11617187 7.8125 33.4375 C7.03519531 32.77621094 6.25789063 32.11492188 5.45703125 31.43359375 C3.11363993 29.77210382 3.11363993 29.77210382 0.5 30.09375 C-2.2717609 31.09851333 -4.40068503 32.3706298 -6.8125 34.0625 C-7.60269531 34.61035156 -8.39289062 35.15820312 -9.20703125 35.72265625 C-10.09455078 36.35494141 -10.09455078 36.35494141 -11 37 C-10.45022293 32.41852438 -9.51774506 28.35086918 -8 24 C-8 23.34 -8 22.68 -8 22 C-9.78513689 20.5829027 -11.62901835 19.23915516 -13.5 17.9375 C-15.34867345 16.64669644 -17.18637885 15.33960653 -19 14 C-19 13.67 -19 13.34 -19 13 C-13.72 13 -8.44 13 -3 13 C-2.67 10.69 -2.34 8.38 -2 6 C-1.37743972 3.98583438 -0.72433347 1.97984481 0 0 Z " fill="#F5F99D" transform="translate(29,12)"/>
</svg>
