<?xml version="1.0" encoding="UTF-8"?>
<svg version="1.1" xmlns="http://www.w3.org/2000/svg" width="60" height="60">
<path d="M0 0 C7.38423483 4.50196009 12.54565056 10.92917609 15.375 19.0625 C16.66547092 27.62954236 16.65351723 37.4125029 12.05859375 44.94921875 C6.93342722 51.38243242 0.72308177 57.1062756 -7.7109375 58.37670898 C-16.98411337 59.03300598 -26.05696622 59.09174687 -33.625 53.0625 C-39.76140823 47.41193476 -44.48470943 41.39843293 -45.09375 32.79296875 C-45.32785576 22.52143833 -44.7812261 14.66206517 -37.53515625 6.79296875 C-27.64926916 -2.58594978 -12.80066946 -5.75333355 0 0 Z " fill="#16A49E" transform="translate(44.625,1.9375)"/>
<path d="M0 0 C1.65 0 3.3 0 5 0 C5 7.26 5 14.52 5 22 C3.68 22 2.36 22 1 22 C0.02700844 17.14270355 -0.12038805 12.5499375 -0.0625 7.625 C-0.05798828 6.88894531 -0.05347656 6.15289062 -0.04882812 5.39453125 C-0.03715142 3.59631842 -0.01922011 1.79814803 0 0 Z " fill="#D1EDA5" transform="translate(32,13)"/>
<path d="M0 0 C1.32 0 2.64 0 4 0 C4 6.93 4 13.86 4 21 C2.68 21 1.36 21 0 21 C0 14.07 0 7.14 0 0 Z " fill="#EDF8A6" transform="translate(23,14)"/>
<path d="M0 0 C1.65 0.33 3.3 0.66 5 1 C4.67 2.65 4.34 4.3 4 6 C2.35 5.67 0.7 5.34 -1 5 C-0.67 3.35 -0.34 1.7 0 0 Z " fill="#E6F5A6" transform="translate(33,40)"/>
<path d="M0 0 C1.65 0.33 3.3 0.66 5 1 C4.67 2.65 4.34 4.3 4 6 C2.35 5.67 0.7 5.34 -1 5 C-0.67 3.35 -0.34 1.7 0 0 Z " fill="#E7F6A6" transform="translate(23,40)"/>
</svg>
