<?xml version="1.0" encoding="UTF-8"?>
<svg version="1.1" xmlns="http://www.w3.org/2000/svg" width="60" height="60">
<path d="M0 0 C7.38423483 4.50196009 12.54565056 10.92917609 15.375 19.0625 C16.66547092 27.62954236 16.65351723 37.4125029 12.05859375 44.94921875 C6.93342722 51.38243242 0.72308177 57.1062756 -7.7109375 58.37670898 C-16.98411337 59.03300598 -26.05696622 59.09174687 -33.625 53.0625 C-39.76140823 47.41193476 -44.48470943 41.39843293 -45.09375 32.79296875 C-45.32785576 22.52143833 -44.7812261 14.66206517 -37.53515625 6.79296875 C-27.64926916 -2.58594978 -12.80066946 -5.75333355 0 0 Z " fill="#7DA926" transform="translate(44.625,1.9375)"/>
<path d="M0 0 C1.65 0.33 3.3 0.66 5 1 C5.19622241 5.21878192 4.80230168 8.17010894 3 12 C5.97 12 8.94 12 12 12 C14.60672019 16.75343094 14.16583577 20.88825856 13 26 C11.75 29.5625 11.75 29.5625 9 32 C2.57860682 32.86867653 -3.6599424 32.15883228 -10 31 C-10.10823773 28.75106046 -10.18569645 26.50062425 -10.25 24.25 C-10.29640625 22.99703125 -10.3428125 21.7440625 -10.390625 20.453125 C-9.92988709 16.38020187 -9.07064351 15.55794078 -6 13 C-3.02456652 8.96592173 -0.47775179 5.09601913 0 0 Z " fill="#F8FBA0" transform="translate(32,11)"/>
<path d="M0 0 C2.31 0 4.62 0 7 0 C7 4.95 7 9.9 7 15 C5.02 15 3.04 15 1 15 C0 14 0 14 -0.09765625 10.83984375 C-0.08025391 8.90818359 -0.08025391 8.90818359 -0.0625 6.9375 C-0.05347656 5.64714844 -0.04445313 4.35679688 -0.03515625 3.02734375 C-0.02355469 2.02832031 -0.01195312 1.02929688 0 0 Z " fill="#F2F69A" transform="translate(14,28)"/>
</svg>
