<svg role="img" viewBox="0 0 24 24" xmlns="http://www.w3.org/2000/svg">
  <title>GitHub</title>
  <path d="M12 0C5.37 0 0 5.37 0 12c0 5.3 3.44 9.8 8.21 11.38.6.11.82-.26.82-.58 0-.28-.01-1.02-.02-2-3.34.72-4.04-1.61-4.04-1.61-.55-1.39-1.34-1.76-1.34-1.76-1.1-.75.08-.74.08-.74 1.22.09 1.86 1.25 1.86 1.25 1.08 1.85 2.83 1.32 3.52 1 .11-.78.42-1.32.77-1.62-2.67-.3-5.48-1.34-5.48-5.95 0-1.31.47-2.38 1.25-3.22-.13-.3-.54-1.52.12-3.16 0 0 1.02-.33 3.33 1.23A11.63 11.63 0 0112 5.84c1.04.01 2.08.14 3.06.42 2.31-1.56 3.33-1.23 3.33-1.23.66 1.64.25 2.86.12 3.16.78.84 1.25 1.91 1.25 3.22 0 4.62-2.81 5.65-5.49 5.95.43.37.81 1.1.81 2.22 0 1.6-.01 2.89-.01 3.28 0 .32.22.7.83.58C20.56 21.8 24 17.3 24 12c0-6.63-5.37-12-12-12z"/>
</svg>
