<?xml version="1.0" encoding="UTF-8"?>
<svg version="1.1" xmlns="http://www.w3.org/2000/svg" width="60" height="60">
<path d="M0 0 C7.38423483 4.50196009 12.54565056 10.92917609 15.375 19.0625 C16.66547092 27.62954236 16.65351723 37.4125029 12.05859375 44.94921875 C6.93342722 51.38243242 0.72308177 57.1062756 -7.7109375 58.37670898 C-16.98411337 59.03300598 -26.05696622 59.09174687 -33.625 53.0625 C-39.76140823 47.41193476 -44.48470943 41.39843293 -45.09375 32.79296875 C-45.32785576 22.52143833 -44.7812261 14.66206517 -37.53515625 6.79296875 C-27.64926916 -2.58594978 -12.80066946 -5.75333355 0 0 Z " fill="#FFC02D" transform="translate(44.625,1.9375)"/>
<path d="M0 0 C2.875 1.5625 2.875 1.5625 5 4 C5.625 7.4375 5.625 7.4375 5 11 C2.625 13.8125 2.625 13.8125 0 16 C-2.35953094 18.35953094 -2.49141413 19.77895617 -3 23 C-4.32 23 -5.64 23 -7 23 C-7.3125 20.3125 -7.3125 20.3125 -7 17 C-4.625 14.125 -4.625 14.125 -2 12 C-1.34 12 -0.68 12 0 12 C0 9.69 0 7.38 0 5 C-6.31268603 4.62447835 -6.31268603 4.62447835 -12 7 C-12 5.68 -12 4.36 -12 3 C-7.82047491 0.61169995 -4.83391061 -0.71994413 0 0 Z " fill="#FEF797" transform="translate(30,13)"/>
<path d="M0 0 C1.32 0 2.64 0 4 0 C4 6.93 4 13.86 4 21 C2.68 21 1.36 21 0 21 C0 14.07 0 7.14 0 0 Z " fill="#FEF99A" transform="translate(38,14)"/>
<path d="M0 0 C2.0625 0.4375 2.0625 0.4375 4 1 C4 2.65 4 4.3 4 6 C2.125 6.625 2.125 6.625 0 7 C-0.66 6.34 -1.32 5.68 -2 5 C-1.46428571 1.46428571 -1.46428571 1.46428571 0 0 Z " fill="#FEF594" transform="translate(39,40)"/>
<path d="M0 0 C2.0625 0.4375 2.0625 0.4375 4 1 C4 2.65 4 4.3 4 6 C2.125 6.625 2.125 6.625 0 7 C-0.66 6.34 -1.32 5.68 -2 5 C-1.46428571 1.46428571 -1.46428571 1.46428571 0 0 Z " fill="#FEF594" transform="translate(24,40)"/>
<path d="M0 0 C0.66 0.33 1.32 0.66 2 1 C-1.96 4.96 -5.92 8.92 -10 13 C-10 9.28115772 -9.1259934 8.63852271 -6.6875 5.9375 C-5.76517578 4.89916016 -5.76517578 4.89916016 -4.82421875 3.83984375 C-3 2 -3 2 0 0 Z " fill="#FFC53F" transform="translate(14,3)"/>
</svg>
