<?xml version="1.0" encoding="UTF-8"?>
<svg version="1.1" xmlns="http://www.w3.org/2000/svg" width="267" height="267">
<path d="M0 0 C88.11 0 176.22 0 267 0 C267 88.11 267 176.22 267 267 C178.89 267 90.78 267 0 267 C0 178.89 0 90.78 0 0 Z " fill="#F04134" transform="translate(0,0)"/>
<path d="M0 0 C88.11 0 176.22 0 267 0 C267 88.11 267 176.22 267 267 C178.89 267 90.78 267 0 267 C0 178.89 0 90.78 0 0 Z M63 47 C61.99259766 47.80050781 61.99259766 47.80050781 60.96484375 48.6171875 C57.14316723 51.72492445 53.92032681 55.19211834 50.74609375 58.953125 C49.62716354 60.26480158 48.47547239 61.54961891 47.28515625 62.796875 C35.07634964 75.75315956 27.1517382 94.66543992 24 112 C23.79632812 112.91394531 23.59265625 113.82789062 23.3828125 114.76953125 C20.3260209 129.73943532 21.31208896 145.26328664 25 160 C25.16097168 160.64888184 25.32194336 161.29776367 25.48779297 161.96630859 C32.656417 189.93151723 51.41788666 214.49625729 75.9921875 229.4765625 C101.28661657 244.40132521 131.4174243 249.10701882 160 242 C161.05832031 241.74476563 162.11664063 241.48953125 163.20703125 241.2265625 C185.72407623 235.05207721 206.74480913 221.61094364 221 203 C221 202.34 221 201.68 221 201 C221.66 201 222.32 201 223 201 C240.48320018 177.16657999 248.44866388 145.93694384 244.22583008 116.6809082 C241.90812423 102.68596482 237.46125332 89.10102429 230 77 C229.48824219 76.07832031 228.97648438 75.15664062 228.44921875 74.20703125 C227.97097656 73.47871094 227.49273437 72.75039062 227 72 C226.34 72 225.68 72 225 72 C224.75636719 71.28585938 224.51273438 70.57171875 224.26171875 69.8359375 C219.61045588 59.38139619 208.67700175 49.07315282 199 43 C198.34 43 197.68 43 197 43 C197 42.34 197 41.68 197 41 C153.91857772 17.05261081 102.72927414 13.56384288 63 47 Z " fill="#FCFCFC" transform="translate(0,0)"/>
<path d="M0 0 C3.89816661 1.59232127 6.34315524 4.11429106 9.28125 7.0859375 C9.77661255 7.58412994 10.2719751 8.08232239 10.78234863 8.59561157 C12.35967535 10.18408954 13.92990788 11.77937401 15.5 13.375 C16.55552465 14.44056492 17.6115097 15.50567399 18.66796875 16.5703125 C20.61421605 18.53284879 22.5571438 20.49846748 24.49804688 22.46630859 C25.32369141 23.30242676 26.14933594 24.13854492 27 25 C27.68642578 25.79100098 28.37285156 26.58200195 29.08007812 27.39697266 C30.03043945 28.19047119 30.03043945 28.19047119 31 29 C34.17166171 28.61881813 35.81311171 27.55761858 38.02441406 25.31616211 C38.58469299 24.75565659 39.14497192 24.19515106 39.722229 23.61766052 C40.31404968 23.01035599 40.90587036 22.40305145 41.515625 21.77734375 C42.4393692 20.84723228 42.4393692 20.84723228 43.3817749 19.89833069 C45.34500635 17.91832095 47.29754436 15.92813081 49.25 13.9375 C50.58003748 12.59241465 51.91075879 11.24800512 53.2421875 9.90429688 C56.50277537 6.61065094 59.75381188 3.30783661 63 0 C65.81878012 1.28174718 67.85241496 2.61007615 70.015625 4.8203125 C70.80839844 5.62275391 70.80839844 5.62275391 71.6171875 6.44140625 C72.15601563 6.99699219 72.69484375 7.55257812 73.25 8.125 C73.80429688 8.68832031 74.35859375 9.25164062 74.9296875 9.83203125 C76.29104485 11.21686028 77.64614859 12.60783204 79 14 C77.24659442 17.79504222 74.99836053 20.07136878 72 23 C71.21625 23.969375 70.4325 24.93875 69.625 25.9375 C67.2542572 28.84501475 64.57428006 31.1695919 61.6953125 33.5625 C59.3226152 35.57437237 57.16990732 37.77298985 55 40 C54.05125 40.845625 53.1025 41.69125 52.125 42.5625 C51.073125 43.7690625 51.073125 43.7690625 50 45 C50.25883496 48.71504302 52.13189349 50.45226732 54.75 52.9375 C55.42546875 53.58589844 56.1009375 54.23429687 56.796875 54.90234375 C57.52390625 55.59457031 58.2509375 56.28679687 59 57 C61.68408011 59.66647959 64.34845543 62.35189225 67.0078125 65.04296875 C68.04685204 66.09116859 69.08591477 67.13934545 70.125 68.1875 C70.91197266 68.98704102 70.91197266 68.98704102 71.71484375 69.80273438 C74.05013246 72.1528034 76.23324828 74.15549885 79 76 C79 80 79 80 77.4609375 81.7109375 C76.77257812 82.26007813 76.08421875 82.80921875 75.375 83.375 C71.68952218 86.41125664 68.3336829 89.58297503 65 93 C61.23121414 91.44200307 58.88728855 89.090634 56.0625 86.1875 C55.22847656 85.33542969 54.39445312 84.48335938 53.53515625 83.60546875 C52.69855469 82.74566406 51.86195313 81.88585937 51 81 C50.195625 80.19949219 49.39125 79.39898437 48.5625 78.57421875 C46.68605813 76.68919559 44.84899473 74.78796315 43.02734375 72.8515625 C41.99751153 71.77593088 40.96756247 70.70041113 39.9375 69.625 C39.42123047 69.06683594 38.90496094 68.50867188 38.37304688 67.93359375 C36.69498721 66.14446047 36.69498721 66.14446047 34 64 C30.83679903 64.02774738 30.07917027 64.92938868 27.6875 67.0625 C25.59980431 69.34439994 23.57590237 71.65398711 21.5625 74 C18.63225231 77.3932522 15.45267537 80.13501405 12 83 C10.41801951 84.77134473 8.90500925 86.58875199 7.390625 88.41796875 C5.77885724 90.25158095 4.04156891 91.66512802 2 93 C-1.85754273 91.42840852 -4.14362932 88.98922513 -7 86 C-8.26818853 84.72652735 -9.53910193 83.45576341 -10.8125 82.1875 C-11.875 81.125 -12.9375 80.0625 -14 79 C-12.71977125 76.19030533 -11.39285871 74.1460762 -9.20263672 71.97558594 C-8.64220673 71.41530701 -8.08177673 70.85502808 -7.50436401 70.277771 C-6.90222076 69.68595032 -6.30007751 69.09412964 -5.6796875 68.484375 C-5.06102814 67.86854553 -4.44236877 67.25271606 -3.80496216 66.6182251 C-1.83296186 64.65739664 0.14588737 62.70364699 2.125 60.75 C3.46530164 59.41973201 4.80515083 58.089008 6.14453125 56.7578125 C9.42446589 53.4998985 12.71055942 50.24831467 16 47 C12.22875755 42.49545175 8.3393403 38.19806124 4.1640625 34.06640625 C3.37773941 33.28220558 3.37773941 33.28220558 2.57553101 32.48216248 C0.9277213 30.83987655 -0.72355901 29.2011335 -2.375 27.5625 C-3.50413955 26.43838533 -4.63304778 25.31403826 -5.76171875 24.18945312 C-8.50515188 21.45694765 -11.25169985 18.72760991 -14 16 C-12.71825282 13.18121988 -11.38992385 11.14758504 -9.1796875 8.984375 C-8.64472656 8.45585938 -8.10976562 7.92734375 -7.55859375 7.3828125 C-7.00300781 6.84398438 -6.44742188 6.30515625 -5.875 5.75 C-5.31167969 5.19570312 -4.74835938 4.64140625 -4.16796875 4.0703125 C-2.78313972 2.70895515 -1.39216796 1.35385141 0 0 Z " fill="#FAFAF9" transform="translate(101,87)"/>
<path d="M0 0 C-3.10587765 1.71409285 -6.04822568 2.58628812 -9.5 3.375 C-17.94595411 5.4193752 -26.36879128 7.7604396 -34 12 C-33.01 12.66 -32.02 13.32 -31 14 C-31.99 15.485 -31.99 15.485 -33 17 C-33.66 17 -34.32 17 -35 17 C-35.33 16.34 -35.66 15.68 -36 15 C-36.99 15 -37.98 15 -39 15 C-39 15.66 -39 16.32 -39 17 C-43.37271506 21.24410579 -47.048832 22 -53 22 C-41.84929582 12.44225356 -15.49243142 -5.75653936 0 0 Z " fill="#D35752" transform="translate(116,25)"/>
<path d="M0 0 C2.64 0 5.28 0 8 0 C8.33 0.66 8.66 1.32 9 2 C17.83768267 7.38861808 30.20720608 6.28200255 40.125 6.1875 C41.41792969 6.18685547 42.71085937 6.18621094 44.04296875 6.18554688 C51.0868269 6.15330134 58.01002527 5.89091934 65 5 C53.02779846 12.98146769 30.31912209 9.91003538 16.85864258 7.35546875 C10.73688005 6.07370386 4.84196743 4.21747126 -1 2 C-0.67 1.34 -0.34 0.68 0 0 Z " fill="#D0534E" transform="translate(95,236)"/>
<path d="M0 0 C0 4.96562727 -3.66361329 7.5653142 -7 11 C-13.14846321 17.08374255 -19.13033742 22.30805953 -27 26 C-26.505 24.515 -26.505 24.515 -26 23 C-23.4375 21.8125 -23.4375 21.8125 -21 21 C-21 20.01 -21 19.02 -21 18 C-19 15.8125 -19 15.8125 -17 14 C-17.66 13.67 -18.32 13.34 -19 13 C-19 11.68 -19 10.36 -19 9 C-15.0186217 7.6728739 -11.14954773 7.93084087 -7 8 C-6.67 7.34 -6.34 6.68 -6 6 C-5.34 6 -4.68 6 -4 6 C-4.33 4.68 -4.66 3.36 -5 2 C-3.35 1.34 -1.7 0.68 0 0 Z " fill="#D94438" transform="translate(219,202)"/>
<path d="M0 0 C4.32504836 1.65863505 7.09418825 4.871041 10.25 8.125 C11.08144531 8.96998047 11.08144531 8.96998047 11.9296875 9.83203125 C13.29104485 11.21686028 14.64614859 12.60783204 16 14 C14.02706248 18.28383193 11.30324265 21.84837867 7 24 C6.67 23.01 6.34 22.02 6 21 C7.2065625 20.6596875 7.2065625 20.6596875 8.4375 20.3125 C9.283125 19.879375 10.12875 19.44625 11 19 C11.89386164 16.45224694 11.89386164 16.45224694 12 14 C11.195625 13.71125 10.39125 13.4225 9.5625 13.125 C7 12 7 12 6 10 C5.01 10.495 5.01 10.495 4 11 C3.7525 10.38125 3.505 9.7625 3.25 9.125 C1.76749514 6.60474173 0.71612936 5.98768341 -2 5 C-2.99 5 -3.98 5 -5 5 C-3.35 3.35 -1.7 1.7 0 0 Z " fill="#F8EEE5" transform="translate(164,87)"/>
<path d="M0 0 C0.66 0.33 1.32 0.66 2 1 C1.67 1.66 1.34 2.32 1 3 C0.030625 3.28875 -0.93875 3.5775 -1.9375 3.875 C-5.12136308 4.64244004 -5.12136308 4.64244004 -6 7.0625 C-6.33 7.701875 -6.66 8.34125 -7 9 C-10.125 9.75 -10.125 9.75 -13 10 C-13 9.34 -13 8.68 -13 8 C-14.4540625 8.23396484 -14.4540625 8.23396484 -15.9375 8.47265625 C-25.83477692 9.94878432 -35.05250649 9.97887569 -45 9 C-45 8.67 -45 8.34 -45 8 C-44.35675781 7.96036133 -43.71351563 7.92072266 -43.05078125 7.87988281 C-22.17343164 6.64467475 -22.17343164 6.64467475 -2.19921875 0.8125 C-1.47347656 0.544375 -0.74773437 0.27625 0 0 Z " fill="#FBECE1" transform="translate(173,237)"/>
<path d="M0 0 C0.33 0 0.66 0 1 0 C1.33 15.84 1.66 31.68 2 48 C-5.57476723 36.63784916 -2.96544588 14.63182509 -0.4375 1.921875 C-0.293125 1.28765625 -0.14875 0.6534375 0 0 Z " fill="#DC5957" transform="translate(24,112)"/>
<path d="M0 0 C8.69771517 1.77433389 17.2685387 7.75285059 25 12 C25 12.66 25 13.32 25 14 C25.56332031 14.2578125 26.12664062 14.515625 26.70703125 14.78125 C29.2580504 16.13715796 31.41046899 17.72353944 33.6875 19.5 C34.47511719 20.1084375 35.26273438 20.716875 36.07421875 21.34375 C38 23 38 23 39 25 C37.02 25 35.04 25 33 25 C33.66 24.67 34.32 24.34 35 24 C35 23.34 35 22.68 35 22 C34.236875 22.103125 33.47375 22.20625 32.6875 22.3125 C31.800625 22.209375 30.91375 22.10625 30 22 C28.95107762 20.36368108 27.95093297 18.69514137 27 17 C24.91466367 16.12177688 24.91466367 16.12177688 23 16 C23 15.34 23 14.68 23 14 C20.36 12.68 17.72 11.36 15 10 C15 9.34 15 8.68 15 8 C13.906875 7.896875 12.81375 7.79375 11.6875 7.6875 C7.70211928 6.94446292 7.61645144 6.61645144 5 4 C2.35534998 3.13255479 -0.27082405 2.58162766 -3 2 C-2.01 1.34 -1.02 0.68 0 0 Z " fill="#D7524D" transform="translate(172,29)"/>
<path d="M0 0 C1.28801514 0.17644043 1.28801514 0.17644043 2.60205078 0.35644531 C8.65407762 1.26535351 14.37267377 2.79009574 20.1875 4.6875 C15.84256364 6.00700607 12.11681759 5.16274288 7.75 4.3125 C6.99912109 4.17328125 6.24824219 4.0340625 5.47460938 3.890625 C2.58426328 3.35170383 -0.29828554 2.80315026 -3.16699219 2.15795898 C-6.20136133 1.61834757 -9.12671936 1.47328419 -12.20703125 1.37109375 C-13.40908203 1.32919922 -14.61113281 1.28730469 -15.84960938 1.24414062 C-17.09548828 1.20482422 -18.34136719 1.16550781 -19.625 1.125 C-21.52282227 1.06022461 -21.52282227 1.06022461 -23.45898438 0.99414062 C-26.57671889 0.8882553 -29.69453035 0.78617595 -32.8125 0.6875 C-32.8125 0.3575 -32.8125 0.0275 -32.8125 -0.3125 C-21.7046032 -2.05601798 -11.07692028 -1.54561678 0 0 Z " fill="#D3615F" transform="translate(149.8125,23.3125)"/>
<path d="M0 0 C0.66 0.99 1.32 1.98 2 3 C1.67 3.99 1.34 4.98 1 6 C0.34 5.34 -0.32 4.68 -1 4 C-0.938125 4.928125 -0.87625 5.85625 -0.8125 6.8125 C-1 10 -1 10 -2.25 11.875 C-4 13 -4 13 -8 13 C-8.33 13.99 -8.66 14.98 -9 16 C-10.65 15.67 -12.3 15.34 -14 15 C-9.97694299 9.13783121 -5.87333856 4.1330901 0 0 Z " fill="#E4483D" transform="translate(62,48)"/>
<path d="M0 0 C0.33 0 0.66 0 1 0 C1.05859908 4.31244188 1.09379686 8.62477974 1.125 12.9375 C1.14175781 14.14986328 1.15851563 15.36222656 1.17578125 16.61132812 C1.21267208 23.4176856 0.80060558 29.42849852 -1 36 C-2.98 36.495 -2.98 36.495 -5 37 C-4.17596509 30.14624806 -3.15977007 23.33140833 -2.10546875 16.50976562 C-1.2680913 11.01606208 -0.58002811 5.52699859 0 0 Z " fill="#F9DDD3" transform="translate(245,131)"/>
<path d="M0 0 C0.66 0.66 1.32 1.32 2 2 C1.79296875 3.98828125 1.79296875 3.98828125 1.1875 6.3125 C0.88779297 7.51132813 0.88779297 7.51132813 0.58203125 8.734375 C0.38996094 9.48203125 0.19789062 10.2296875 0 11 C-0.33986667 12.66534667 -0.67702486 14.33129513 -1 16 C-0.01 16 0.98 16 2 16 C2 21.28 2 26.56 2 32 C1.34 32 0.68 32 0 32 C-2.46458343 20.77709466 -4.37046711 11.07185002 0 0 Z " fill="#E54735" transform="translate(28,96)"/>
<path d="M0 0 C3.36981106 1.88082478 6.68149234 3.79712079 9.9375 5.87109375 C17.05849506 10.39874566 24.09622363 14.03786399 32 17 C32 17.33 32 17.66 32 18 C28.04 18.33 24.08 18.66 20 19 C20 17.33333333 20 15.66666667 20 14 C18.88625 13.566875 18.88625 13.566875 17.75 13.125 C15.43260203 12.17697356 13.22082885 11.15154089 11 10 C11 9.34 11 8.68 11 8 C8.36 7.34 5.72 6.68 3 6 C3 5.01 3 4.02 3 3 C1.68 2.34 0.36 1.68 -1 1 C-0.67 0.67 -0.34 0.34 0 0 Z " fill="#FBEFE8" transform="translate(64,221)"/>
<path d="M0 0 C5.93756614 4.30473545 10.08289043 9.82607857 14 16 C14 16.66 14 17.32 14 18 C14.66 18 15.32 18 16 18 C17.32421875 19.6796875 17.32421875 19.6796875 18.6875 21.875 C19.14511719 22.59429687 19.60273438 23.31359375 20.07421875 24.0546875 C20.37972656 24.69664063 20.68523437 25.33859375 21 26 C20.67 26.66 20.34 27.32 20 28 C17 26.3125 17 26.3125 14 24 C13.625 21.25 13.625 21.25 14 19 C12.68 19 11.36 19 10 19 C8.9927389 16.48184726 7.985983 13.96408143 7 11.4375 C6.09421867 9.229658 5.09797631 7.11752575 4 5 C3.34 5 2.68 5 2 5 C2 4.34 2 3.68 2 3 C1.34 3 0.68 3 0 3 C0 2.01 0 1.02 0 0 Z " fill="#DC4A44" transform="translate(211,54)"/>
<path d="M0 0 C2.475 0.495 2.475 0.495 5 1 C5 1.66 5 2.32 5 3 C5.66 3.33 6.32 3.66 7 4 C4.66666667 4 2.33333333 4 0 4 C-2.23515016 5.94562294 -4.22932551 7.85363762 -6.25 10 C-6.80429688 10.57234375 -7.35859375 11.1446875 -7.9296875 11.734375 C-9.29564122 13.14743057 -10.64905611 14.57258758 -12 16 C-11.34 17.65 -10.68 19.3 -10 21 C-10.66 21.33 -11.32 21.66 -12 22 C-12 21.34 -12 20.68 -12 20 C-12.66 20 -13.32 20 -14 20 C-14.33 17.69 -14.66 15.38 -15 13 C-14.01 13 -13.02 13 -12 13 C-12 11.35 -12 9.7 -12 8 C-11.01 8.66 -10.02 9.32 -9 10 C-8.54625 9.34 -8.0925 8.68 -7.625 8 C-7.08875 7.34 -6.5525 6.68 -6 6 C-5.34 6 -4.68 6 -4 6 C-3.67 4.68 -3.34 3.36 -3 2 C-2.34 2 -1.68 2 -1 2 C-0.67 1.34 -0.34 0.68 0 0 Z " fill="#C84A43" transform="translate(100,85)"/>
<path d="M0 0 C5.75 1.625 5.75 1.625 8 5 C10.05925139 5.72382467 10.05925139 5.72382467 12 6 C12 6.66 12 7.32 12 8 C14.475 8.99 14.475 8.99 17 10 C17 10.66 17 11.32 17 12 C19.64 12.66 22.28 13.32 25 14 C25 14.66 25 15.32 25 16 C26.98 16 28.96 16 31 16 C30.34 16.33 29.68 16.66 29 17 C29 17.66 29 18.32 29 19 C23.7603408 17.52864484 19.60865601 15.14027137 15.0625 12.25 C14.38509766 11.83234375 13.70769531 11.4146875 13.00976562 10.984375 C8.34860818 8.05271701 3.93847793 4.86835437 0 1 C0 0.67 0 0.34 0 0 Z " fill="#D65350" transform="translate(61,217)"/>
<path d="M0 0 C2.97 0.495 2.97 0.495 6 1 C4.01929563 3.35043586 2.01418678 5.67822804 0 8 C-0.70125 8.825 -1.4025 9.65 -2.125 10.5 C-4 12 -4 12 -6.1875 11.9375 C-8 11 -8 11 -9 8 C-9.99 7.67 -10.98 7.34 -12 7 C-11.34 6.67 -10.68 6.34 -10 6 C-7.375 6.9375 -7.375 6.9375 -5 8 C-4.71125 7.38125 -4.4225 6.7625 -4.125 6.125 C-3 4 -3 4 -1 2 C-0.34 2.33 0.32 2.66 1 3 C0.67 2.01 0.34 1.02 0 0 Z " fill="#D44C46" transform="translate(139,105)"/>
<path d="M0 0 C2.0625 1.6875 2.0625 1.6875 4 4 C4 6.625 4 6.625 3 9 C0.9375 10.3125 0.9375 10.3125 -1 11 C-1 9.35 -1 7.7 -1 6 C-4.11785113 6.64644661 -4.11785113 6.64644661 -5 9 C-5.66 9 -6.32 9 -7 9 C-7 9.99 -7 10.98 -7 12 C-8.32 11.34 -9.64 10.68 -11 10 C-9.73232923 8.70522938 -8.46073776 7.41429661 -7.1875 6.125 C-6.47980469 5.40570313 -5.77210938 4.68640625 -5.04296875 3.9453125 C-3 2 -3 2 0 0 Z " fill="#E64429" transform="translate(181,165)"/>
<path d="M0 0 C4 0 4 0 6 1 C6 1.66 6 2.32 6 3 C6.928125 3.2475 7.85625 3.495 8.8125 3.75 C12.16458325 5.06454245 13.1877803 5.97963384 15 9 C14.01 9.495 14.01 9.495 13 10 C12.01 9.34 11.02 8.68 10 8 C8.00796011 7.83326446 8.00796011 7.83326446 5.9375 8 C4.638125 8 3.33875 8 2 8 C0 6 0 6 -0.125 2.875 C-0.08375 1.92625 -0.0425 0.9775 0 0 Z " fill="#EB4641" transform="translate(80,102)"/>
<path d="M0 0 C0.99 0.33 1.98 0.66 3 1 C3.48979592 8.34693878 3.48979592 8.34693878 1.125 11.5 C-1 13 -1 13 -3 13 C-3 13.66 -3 14.32 -3 15 C-5.3125 16.6875 -5.3125 16.6875 -8 18 C-8.99 17.67 -9.98 17.34 -11 17 C-10.0479279 15.99403703 -9.08812654 14.99538437 -8.125 14 C-7.32449219 13.1646875 -7.32449219 13.1646875 -6.5078125 12.3125 C-5 11 -5 11 -3 11 C-1.23537317 7.91190305 -1 6.76687864 -1 3 C-1.33 2.34 -1.66 1.68 -2 1 C-1.34 0.67 -0.68 0.34 0 0 Z " fill="#D55B4C" transform="translate(179,97)"/>
<path d="M0 0 C0.78697266 0.16435547 0.78697266 0.16435547 1.58984375 0.33203125 C10.02940695 2.05926299 18.51385384 3.52329243 27 5 C23.74127429 7.1724838 23.30719818 7.21455898 19.65625 6.79296875 C18.40521484 6.6547168 18.40521484 6.6547168 17.12890625 6.51367188 C16.26136719 6.40603516 15.39382812 6.29839844 14.5 6.1875 C13.19869141 6.04344727 13.19869141 6.04344727 11.87109375 5.89648438 C8.40785167 5.49770302 5.31902196 5.10634065 2 4 C2 3.34 2 2.68 2 2 C1.34 2 0.68 2 0 2 C0 1.34 0 0.68 0 0 Z " fill="#FDE6DE" transform="translate(96,239)"/>
<path d="M0 0 C2.64 0 5.28 0 8 0 C8.33 0.66 8.66 1.32 9 2 C12.24910168 4.04966695 15.48823683 4.55255778 19.25 5.125 C20.86648437 5.37636719 20.86648437 5.37636719 22.515625 5.6328125 C23.74539062 5.81457031 23.74539062 5.81457031 25 6 C25 6.66 25 7.32 25 8 C15.83404773 7.75763107 7.60321558 4.89264444 -1 2 C-0.67 1.34 -0.34 0.68 0 0 Z " fill="#D94945" transform="translate(95,236)"/>
<path d="M0 0 C0.33 0 0.66 0 1 0 C1.40740741 10.18518519 1.40740741 10.18518519 -1 15 C-2.33333333 15.33333333 -3.66666667 15.66666667 -5 16 C-6.3045656 18.99615946 -6.3045656 18.99615946 -7 22 C-7.66 22 -8.32 22 -9 22 C-7.51618594 17.00898907 -5.40972526 12.39285459 -3.21875 7.68359375 C-2.06732127 5.14823626 -1.01294804 2.59333456 0 0 Z " fill="#FBE2D9" transform="translate(239,168)"/>
<path d="M0 0 C1.1725131 0.95117134 2.33787015 1.91117009 3.5 2.875 C4.47453125 3.67550781 4.47453125 3.67550781 5.46875 4.4921875 C5.9740625 4.98976562 6.479375 5.48734375 7 6 C7 6.66 7 7.32 7 8 C7.556875 8.20625 8.11375 8.4125 8.6875 8.625 C11.92501302 10.55000774 13.68231141 13.03850902 16 16 C12.25 17.125 12.25 17.125 10 16 C10 15.34 10 14.68 10 14 C9.195625 13.38125 8.39125 12.7625 7.5625 12.125 C4.96935871 9.97459015 4.34779165 9.24605542 4 6 C3.34 6 2.68 6 2 6 C1.34 4.02 0.68 2.04 0 0 Z " fill="#E24C4B" transform="translate(143,159)"/>
<path d="M0 0 C3.875 1.75 3.875 1.75 5 4 C6.10793545 11.63244419 6.12086327 19.30503875 6 27 C5.67 27 5.34 27 5 27 C4.70996094 25.26363281 4.70996094 25.26363281 4.4140625 23.4921875 C4.15128853 21.95308283 3.88825388 20.41402266 3.625 18.875 C3.49867188 18.11445312 3.37234375 17.35390625 3.2421875 16.5703125 C2.65331571 13.1548561 1.99760019 9.99280056 0.8984375 6.6953125 C0 4 0 4 0 0 Z " fill="#FCE6DE" transform="translate(239,96)"/>
<path d="M0 0 C2.49361571 1.20381448 4.68143083 2.45428722 7 4 C7 4.66 7 5.32 7 6 C7.66 6 8.32 6 9 6 C9 6.66 9 7.32 9 8 C9.66 8 10.32 8 11 8 C13.125 9.875 13.125 9.875 15 12 C15 12.66 15 13.32 15 14 C15.99 13.67 16.98 13.34 18 13 C17.34 14.65 16.68 16.3 16 18 C10.33333333 12.33333333 4.66666667 6.66666667 -1 1 C-0.67 0.67 -0.34 0.34 0 0 Z " fill="#FBE8E1" transform="translate(205,46)"/>
<path d="M0 0 C-0.66 1.32 -1.32 2.64 -2 4 C-2.66 4 -3.32 4 -4 4 C-4.33 3.34 -4.66 2.68 -5 2 C-5.99 2 -6.98 2 -8 2 C-8 2.66 -8 3.32 -8 4 C-12.37271506 8.24410579 -16.048832 9 -22 9 C-9.61702128 -1.72340426 -9.61702128 -1.72340426 0 0 Z " fill="#DE514B" transform="translate(85,38)"/>
<path d="M0 0 C6.15234375 -0.09765625 6.15234375 -0.09765625 8 0 C8.33 0.33 8.66 0.66 9 1 C12.5 1.16666667 12.5 1.16666667 16 1 C16.33 0.67 16.66 0.34 17 0 C19.33297433 -0.04092937 21.66705225 -0.04241723 24 0 C24 0.66 24 1.32 24 2 C22.2984375 2.2165625 22.2984375 2.2165625 20.5625 2.4375 C17.19222799 2.61171478 17.19222799 2.61171478 16 4 C14.065581 4.12583966 12.12597237 4.17578009 10.1875 4.1875 C9.12917969 4.20167969 8.07085937 4.21585938 6.98046875 4.23046875 C4.0795374 4.00615034 2.45181647 3.50196021 0 2 C0 1.34 0 0.68 0 0 Z " fill="#E64731" transform="translate(112,26)"/>
<path d="M0 0 C0.66 0.33 1.32 0.66 2 1 C2 1.99 2 2.98 2 4 C3.32 4.66 4.64 5.32 6 6 C6 6.66 6 7.32 6 8 C1.27826731 7.30130124 -3.27775349 6.19817903 -7.875 4.9375 C-8.56335938 4.75123047 -9.25171875 4.56496094 -9.9609375 4.37304688 C-11.64132514 3.91794189 -13.32076322 3.45933322 -15 3 C-15 2.34 -15 1.68 -15 1 C-10.39641944 0.87212276 -10.39641944 0.87212276 -8.0625 1.625 C-5.0583093 2.17121649 -2.83838668 0.98726493 0 0 Z " fill="#FBE9E3" transform="translate(170,22)"/>
<path d="M0 0 C0.33 1.32 0.66 2.64 1 4 C1.66 4 2.32 4 3 4 C3.29924559 9.08717503 2.93094235 11.82904357 0 16 C-0.68096422 17.32608822 -1.35330586 18.65686601 -2 20 C-2.66 20 -3.32 20 -4 20 C-3.55835412 16.90847881 -3.02783037 14.08001231 -2 11.125 C-0.80306592 7.38458099 -0.40375028 3.90291937 0 0 Z " fill="#F1FEF7" transform="translate(22,156)"/>
<path d="M0 0 C1.65 0 3.3 0 5 0 C0.59156563 5.29012124 -4.07559794 10.18808428 -9 15 C-9.66 13.68 -10.32 12.36 -11 11 C-10.01 11.33 -9.02 11.66 -8 12 C-8 10.68 -8 9.36 -8 8 C-7.34 8 -6.68 8 -6 8 C-5.67 6.35 -5.34 4.7 -5 3 C-3.35 3.33 -1.7 3.66 0 4 C0 2.68 0 1.36 0 0 Z " fill="#DA4441" transform="translate(108,138)"/>
<path d="M0 0 C0.66 0.33 1.32 0.66 2 1 C-2.29 5.29 -6.58 9.58 -11 14 C-11.66 12.68 -12.32 11.36 -13 10 C-12.67 9.34 -12.34 8.68 -12 8 C-11.34 8.33 -10.68 8.66 -10 9 C-10.33 8.01 -10.66 7.02 -11 6 C-10.34 6 -9.68 6 -9 6 C-8.5875 5.566875 -8.175 5.13375 -7.75 4.6875 C-5.41526824 2.43615152 -2.97016525 1.26390011 0 0 Z " fill="#E2453F" transform="translate(158,91)"/>
<path d="M0 0 C0.4125 0.66 0.825 1.32 1.25 2 C1.8275 2.66 2.405 3.32 3 4 C4.32 4 5.64 4 7 4 C7 4.99 7 5.98 7 7 C6.34 7 5.68 7 5 7 C6.51865214 11.29888613 6.51865214 11.29888613 9 15 C9.04063832 16.66617115 9.042721 18.33388095 9 20 C5.75737007 17.27779216 4.10240475 13.72005562 2.25 10 C1.92128906 9.3709375 1.59257813 8.741875 1.25390625 8.09375 C0.42074868 6.43446573 -0.29763177 4.71873637 -1 3 C-0.67 2.01 -0.34 1.02 0 0 Z " fill="#DA4F3F" transform="translate(31,173)"/>
<path d="M0 0 C0.66 0.33 1.32 0.66 2 1 C0.1875 4 0.1875 4 -2 7 C-2.99 7 -3.98 7 -5 7 C-5.33 8.98 -5.66 10.96 -6 13 C-8.97 12.67 -11.94 12.34 -15 12 C-11.00352469 8.77703604 -6.9521127 5.62853747 -2.890625 2.48828125 C-1.09836056 1.13777384 -1.09836056 1.13777384 0 0 Z " fill="#FCE5DC" transform="translate(205,218)"/>
<path d="M0 0 C0.33 0 0.66 0 1 0 C1.42039457 3.43322234 1.60825977 5.9997506 -0.23046875 9.0234375 C-1.74647333 10.85761588 -3.14090578 12.51181996 -5 14 C-5.99 14 -6.98 14 -8 14 C-8.33 14.99 -8.66 15.98 -9 17 C-9.66 17 -10.32 17 -11 17 C-10 15 -9 13 -8 11 C-7.34 11 -6.68 11 -6 11 C-5.7525 10.29875 -5.505 9.5975 -5.25 8.875 C-3.83440046 5.61912106 -2.07362202 2.87631441 0 0 Z " fill="#FCDFD6" transform="translate(229,190)"/>
<path d="M0 0 C0.33 0.99 0.66 1.98 1 3 C0.01 3.33 -0.98 3.66 -2 4 C-2 4.66 -2 5.32 -2 6 C-2.99 6.495 -2.99 6.495 -4 7 C-2.69844994 11.07964281 -2.69844994 11.07964281 -1 15 C-1.66 15.66 -2.32 16.32 -3 17 C-4.98 15.02 -6.96 13.04 -9 11 C-7.59155282 7.78475695 -5.89655214 5.67816132 -3.375 3.25 C-2.74335937 2.63640625 -2.11171875 2.0228125 -1.4609375 1.390625 C-0.73777344 0.70226562 -0.73777344 0.70226562 0 0 Z " fill="#F6EFDF" transform="translate(96,155)"/>
<path d="M0 0 C2.64 0 5.28 0 8 0 C8.2475 0.639375 8.495 1.27875 8.75 1.9375 C9.81562433 4.18741541 9.81562433 4.18741541 12.125 4.75 C12.74375 4.8325 13.3625 4.915 14 5 C14.33 4.34 14.66 3.68 15 3 C15.33 5.97 15.66 8.94 16 12 C12.19374613 8.77932365 8.45918464 5.59755203 5 2 C4.38125 2.309375 3.7625 2.61875 3.125 2.9375 C1.75 3.625 0.375 4.3125 -1 5 C-0.67 3.35 -0.34 1.7 0 0 Z " fill="#D2534B" transform="translate(161,86)"/>
<path d="M0 0 C0.33 0.99 0.66 1.98 1 3 C0.67 3.66 0.34 4.32 0 5 C-0.66 5 -1.32 5 -2 5 C-2 5.99 -2 6.98 -2 8 C-2.99 8.33 -3.98 8.66 -5 9 C-5.268125 9.61875 -5.53625 10.2375 -5.8125 10.875 C-7.54072687 13.9676165 -9.78681585 14.68849627 -13 16 C-13.99 16 -14.98 16 -16 16 C-14.71451591 14.66070495 -13.42141845 13.32871357 -12.125 12 C-11.40570313 11.2575 -10.68640625 10.515 -9.9453125 9.75 C-8 8 -8 8 -6 8 C-5.7525 7.4225 -5.505 6.845 -5.25 6.25 C-3.83316683 3.6997003 -2.12372463 1.98214299 0 0 Z " fill="#DD5958" transform="translate(166,116)"/>
<path d="M0 0 C0.66 0 1.32 0 2 0 C2 0.66 2 1.32 2 2 C2.66 2 3.32 2 4 2 C4.33 1.34 4.66 0.68 5 0 C10.34402332 4.93294461 10.34402332 4.93294461 11 9 C11.63654342 10.3479743 12.29605388 11.68596724 13 13 C10 13 10 13 8.4375 11.8125 C7 10 7 10 6.0625 7.375 C5.2501999 4.80875315 5.2501999 4.80875315 2.875 4.1875 C2.25625 4.125625 1.6375 4.06375 1 4 C0.67 2.68 0.34 1.36 0 0 Z " fill="#EC4844" transform="translate(99,81)"/>
<path d="M0 0 C0.66 0 1.32 0 2 0 C2 4.95 2 9.9 2 15 C2.66 15 3.32 15 4 15 C4 17.64 4 20.28 4 23 C3.34 23 2.68 23 2 23 C-0.48260659 15.39701733 -0.18508331 7.89688807 0 0 Z " fill="#EA452E" transform="translate(26,129)"/>
<path d="M0 0 C0.66 1.32 1.32 2.64 2 4 C-0.36292656 6.52588702 -1.66462511 7.88820837 -5 9 C-7.33299825 9.03954234 -9.66708189 9.04401732 -12 9 C-12 8.34 -12 7.68 -12 7 C-12.66 7 -13.32 7 -14 7 C-14 6.34 -14 5.68 -14 5 C-13.4225 5.165 -12.845 5.33 -12.25 5.5 C-8.83570843 6.25873146 -6.30568539 6.10189513 -3 5 C-1.8499169 3.03327085 -1.8499169 3.03327085 -1 1 C-0.67 0.67 -0.34 0.34 0 0 Z " fill="#D25C50" transform="translate(110,172)"/>
<path d="M0 0 C0.66 0.99 1.32 1.98 2 3 C1.113125 3.556875 0.22625 4.11375 -0.6875 4.6875 C-3.84830092 6.78728089 -6.34917806 9.28120827 -9 12 C-10.64864545 13.35555293 -12.31003995 14.69631653 -14 16 C-14 12 -14 12 -12.1875 9.75 C-10 8 -10 8 -7 8 C-6.67 7.01 -6.34 6.02 -6 5 C-4.70264493 3.95374591 -3.36733028 2.95298777 -2 2 C-1.34 1.34 -0.68 0.68 0 0 Z " fill="#FCEEE6" transform="translate(134,146)"/>
<path d="M0 0 C0.99 0 1.98 0 3 0 C3.33 1.32 3.66 2.64 4 4 C2.68 4.33 1.36 4.66 0 5 C-0.33 7.31 -0.66 9.62 -1 12 C-2.65 12 -4.3 12 -6 12 C-5.51300383 7.61703444 -4.16604109 5.96816352 -1 3 C-0.67 2.01 -0.34 1.02 0 0 Z " fill="#E6432F" transform="translate(218,192)"/>
<path d="M0 0 C9.29969244 -0.69602688 17.20121611 1.34017869 26 4 C21.65506364 5.31950607 17.92931759 4.47524288 13.5625 3.625 C12.43618164 3.41617187 12.43618164 3.41617187 11.28710938 3.203125 C7.51846075 2.50043942 3.7571364 1.76188452 0 1 C0 0.67 0 0.34 0 0 Z " fill="#D74C4B" transform="translate(144,24)"/>
<path d="M0 0 C1.4540625 0.0309375 1.4540625 0.0309375 2.9375 0.0625 C2.6075 1.0525 2.2775 2.0425 1.9375 3.0625 C-3.68802225 5.53724691 -8.46304712 5.20697132 -14.0625 3.0625 C-12.0625 1.0625 -12.0625 1.0625 -10.15234375 0.90234375 C-9.44207031 0.93457031 -8.73179687 0.96679688 -8 1 C-6.700625 1.020625 -5.40125 1.04125 -4.0625 1.0625 C-3.0625 0.0625 -3.0625 0.0625 0 0 Z " fill="#F0FEF8" transform="translate(168.0625,19.9375)"/>
<path d="M0 0 C2.66666667 2.66666667 5.33333333 5.33333333 8 8 C7.67 8.99 7.34 9.98 7 11 C6.34 10.67 5.68 10.34 5 10 C5 9.01 5 8.02 5 7 C3.68 6.67 2.36 6.34 1 6 C0.67 6.66 0.34 7.32 0 8 C0 7.34 0 6.68 0 6 C-0.99 5.67 -1.98 5.34 -3 5 C-1.125 1.125 -1.125 1.125 0 0 Z " fill="#F8E6E3" transform="translate(43,199)"/>
<path d="M0 0 C2.1458442 2.82246174 4.19929134 5.689324 6.1875 8.625 C6.71730469 9.40101563 7.24710938 10.17703125 7.79296875 10.9765625 C9 13 9 13 9 15 C8.01 15 7.02 15 6 15 C6 14.34 6 13.68 6 13 C5.01 12.67 4.02 12.34 3 12 C0.40632832 7.8693377 -0.34641555 4.84981776 0 0 Z " fill="#FBE5DB" transform="translate(34,184)"/>
<path d="M0 0 C0.33 0.66 0.66 1.32 1 2 C2.65 1.67 4.3 1.34 6 1 C3.83912647 4.9805565 1.41507313 8.01181101 -2 11 C-2.99 11 -3.98 11 -5 11 C-5 10.34 -5 9.68 -5 9 C-3.68 8.67 -2.36 8.34 -1 8 C-1.309375 6.576875 -1.309375 6.576875 -1.625 5.125 C-1.74875 4.09375 -1.8725 3.0625 -2 2 C-1.34 1.34 -0.68 0.68 0 0 Z " fill="#FCE6E1" transform="translate(52,50)"/>
<path d="M0 0 C0.33 0 0.66 0 1 0 C1.02891546 4.45831982 1.04676981 8.91661569 1.0625 13.375 C1.07087891 14.64601562 1.07925781 15.91703125 1.08789062 17.2265625 C1.09111328 18.43828125 1.09433594 19.65 1.09765625 20.8984375 C1.10289307 22.01911621 1.10812988 23.13979492 1.11352539 24.29443359 C1 27 1 27 0 29 C-0.66 29 -1.32 29 -2 29 C-1.85891477 25.85393539 -1.71123864 22.70821132 -1.5625 19.5625 C-1.52318359 18.68400391 -1.48386719 17.80550781 -1.44335938 16.90039062 C-1.17137332 11.23052738 -0.68222355 5.63551047 0 0 Z " fill="#FCE6DB" transform="translate(245,131)"/>
<path d="M0 0 C0.33 0 0.66 0 1 0 C2.1258211 9.32354753 3.23167719 18.63859312 4 28 C3.34 28 2.68 28 2 28 C0.12737819 21.68911704 -0.24896078 16.06038603 -0.125 9.5 C-0.11597656 8.5821875 -0.10695313 7.664375 -0.09765625 6.71875 C-0.07432432 4.47888444 -0.04159235 2.23958817 0 0 Z " fill="#FDEBE1" transform="translate(21,132)"/>
<path d="M0 0 C1.65 0 3.3 0 5 0 C2.69 4.62 0.38 9.24 -2 14 C-2.33 14 -2.66 14 -3 14 C-3.29341888 8.32723489 -3.00559652 5.00932754 0 0 Z " fill="#FCECE3" transform="translate(35,73)"/>
<path d="M0 0 C3.61991736 0.29168756 5.32363813 1.99615571 7.75 4.5625 C8.36359375 5.20316406 8.9771875 5.84382812 9.609375 6.50390625 C10.06828125 6.99761719 10.5271875 7.49132812 11 8 C10.67 8.66 10.34 9.32 10 10 C9.01 9.67 8.02 9.34 7 9 C7 8.34 7 7.68 7 7 C6.34 7 5.68 7 5 7 C3.375 5.5 3.375 5.5 2 4 C1.01 4.495 1.01 4.495 0 5 C0 4.34 0 3.68 0 3 C-0.66 2.67 -1.32 2.34 -2 2 C-1.34 1.34 -0.68 0.68 0 0 Z " fill="#D75859" transform="translate(132,150)"/>
<path d="M0 0 C0.66 0.66 1.32 1.32 2 2 C4.21072977 2.24253813 4.21072977 2.24253813 6.625 2.125 C7.44226563 2.10695313 8.25953125 2.08890625 9.1015625 2.0703125 C9.72804687 2.04710937 10.35453125 2.02390625 11 2 C11.33 2.99 11.66 3.98 12 5 C9.79112243 4.88501733 7.58289213 4.75756495 5.375 4.625 C4.14523438 4.55539063 2.91546875 4.48578125 1.6484375 4.4140625 C-1.83653855 4.0185513 -4.73049601 3.23738151 -8 2 C-4.77626323 -0.14915785 -3.73296326 -0.38286803 0 0 Z " fill="#FCF8EF" transform="translate(141,19)"/>
<path d="M0 0 C0 3.23861295 -0.6250851 5.09740189 -2 8 C-2.99 8.495 -2.99 8.495 -4 9 C-4.33 9.99 -4.66 10.98 -5 12 C-5.66 12 -6.32 12 -7 12 C-7.66 13.98 -8.32 15.96 -9 18 C-9.99 18 -10.98 18 -12 18 C-4.88610478 5.33029613 -4.88610478 5.33029613 0 0 Z " fill="#CC6058" transform="translate(47,63)"/>
<path d="M0 0 C5.30101923 4.00808771 9.06969212 8.66268841 13 14 C11.68 14.33 10.36 14.66 9 15 C8.731875 14.4225 8.46375 13.845 8.1875 13.25 C7.04946754 10.94252104 7.04946754 10.94252104 5.375 8.875 C4 7 4 7 4 5 C3.34 5 2.68 5 2 5 C2 4.34 2 3.68 2 3 C1.34 3 0.68 3 0 3 C0 2.01 0 1.02 0 0 Z " fill="#CE524A" transform="translate(211,54)"/>
<path d="M0 0 C1.86610926 2.79916389 2.68785383 4.81938269 3.625 8 C3.88539062 8.86625 4.14578125 9.7325 4.4140625 10.625 C5 13 5 13 5 16 C4.01 16 3.02 16 2 16 C-0.32637691 10.20377279 -1.43680971 6.13909603 0 0 Z " fill="#FCE5DF" transform="translate(25,160)"/>
<path d="M0 0 C3.45195767 1.4258086 5.1014256 3.09746334 7.25 6.125 C8.03117188 7.21167969 8.03117188 7.21167969 8.828125 8.3203125 C9.40820312 9.15175781 9.40820312 9.15175781 10 10 C8.68 10 7.36 10 6 10 C5.67 9.01 5.34 8.02 5 7 C4.01 6.67 3.02 6.34 2 6 C0 3 0 3 0 0 Z " fill="#F6F6EA" transform="translate(160,145)"/>
<path d="M0 0 C0.66 0.66 1.32 1.32 2 2 C1.79296875 3.98828125 1.79296875 3.98828125 1.1875 6.3125 C0.88779297 7.51132813 0.88779297 7.51132813 0.58203125 8.734375 C0.38996094 9.48203125 0.19789062 10.2296875 0 11 C-0.33986667 12.66534667 -0.67702486 14.33129513 -1 16 C-1.66 16 -2.32 16 -3 16 C-2.57910004 10.39538469 -2.08386889 5.27913453 0 0 Z " fill="#D2554C" transform="translate(28,96)"/>
<path d="M0 0 C3.84086518 2.16048666 7.65977229 4.35566981 11.4375 6.625 C12.11683594 7.02976563 12.79617187 7.43453125 13.49609375 7.8515625 C13.99238281 8.23054687 14.48867187 8.60953125 15 9 C15 9.66 15 10.32 15 11 C13.68 10.67 12.36 10.34 11 10 C11 9.34 11 8.68 11 8 C8.36 7.34 5.72 6.68 3 6 C3 5.01 3 4.02 3 3 C1.68 2.34 0.36 1.68 -1 1 C-0.67 0.67 -0.34 0.34 0 0 Z " fill="#FDE3DC" transform="translate(64,221)"/>
<path d="M0 0 C1.65 1.32 3.3 2.64 5 4 C5.61875 3.690625 6.2375 3.38125 6.875 3.0625 C8.25 2.375 9.625 1.6875 11 1 C10.125 5.875 10.125 5.875 9 7 C5.93518979 7.1613058 3.94450722 6.98150241 1 6 C0.67 4.02 0.34 2.04 0 0 Z " fill="#D65A51" transform="translate(159,175)"/>
<path d="M0 0 C3.59634744 3.49359465 6.83451967 7.11098131 10 11 C8.68 11.33 7.36 11.66 6 12 C5.731875 11.195625 5.46375 10.39125 5.1875 9.5625 C4.795625 8.716875 4.40375 7.87125 4 7 C3.01 6.67 2.02 6.34 1 6 C0.67 4.02 0.34 2.04 0 0 Z " fill="#DD524C" transform="translate(86,164)"/>
<path d="M0 0 C0.66 0.33 1.32 0.66 2 1 C1.57316761 2.58624235 1.13303842 4.1689098 0.6875 5.75 C0.44386719 6.63171875 0.20023438 7.5134375 -0.05078125 8.421875 C-1.02125331 11.05772505 -2.21005644 12.85407326 -4 15 C-3.71935082 12.68613705 -3.42518311 10.37390992 -3.125 8.0625 C-2.96257812 6.77472656 -2.80015625 5.48695313 -2.6328125 4.16015625 C-2.42398438 3.11730469 -2.21515625 2.07445312 -2 1 C-1.34 0.67 -0.68 0.34 0 0 Z " fill="#D1463F" transform="translate(238,165)"/>
<path d="M0 0 C0.66 0.66 1.32 1.32 2 2 C0.1875 5 0.1875 5 -2 8 C-2.99 8 -3.98 8 -5 8 C-5.6875 6.1875 -5.6875 6.1875 -6 4 C-4.15840327 1.51384442 -2.99529289 0.99843096 0 0 Z " fill="#EA452E" transform="translate(124,165)"/>
<path d="M0 0 C0.66 0 1.32 0 2 0 C2 0.66 2 1.32 2 2 C2.99 1.67 3.98 1.34 5 1 C9.59225513 10.41002278 9.59225513 10.41002278 9 15 C6.55586611 11.91730861 4.66890476 8.71528889 2.8125 5.25 C2.28269531 4.26515625 1.75289062 3.2803125 1.20703125 2.265625 C0.80871094 1.51796875 0.41039062 0.7703125 0 0 Z " fill="#FCEAE1" transform="translate(227,73)"/>
<path d="M0 0 C0.33 0.66 0.66 1.32 1 2 C-0.14453125 4.34765625 -0.14453125 4.34765625 -1.8125 7.0625 C-2.35519531 7.96097656 -2.89789063 8.85945312 -3.45703125 9.78515625 C-5 12 -5 12 -7 13 C-6.649375 12.319375 -6.29875 11.63875 -5.9375 10.9375 C-4.77379397 7.2912211 -5.27154898 4.71510022 -6 1 C-5.38125 1.20625 -4.7625 1.4125 -4.125 1.625 C-3.073125 1.810625 -3.073125 1.810625 -2 2 C-1.34 1.34 -0.68 0.68 0 0 Z " fill="#D5413F" transform="translate(231,184)"/>
<path d="M0 0 C1.32 0.66 2.64 1.32 4 2 C3.34 2 2.68 2 2 2 C2.99 2.99 3.98 3.98 5 5 C5.33 4.34 5.66 3.68 6 3 C6.66 3.66 7.32 4.32 8 5 C10.06874034 5.6425235 10.06874034 5.6425235 12 6 C10.68 6.99 9.36 7.98 8 9 C4.18315774 7.44499019 1.80804268 4.96404505 -1 2 C-0.67 1.34 -0.34 0.68 0 0 Z " fill="#FDE6DB" transform="translate(95,171)"/>
<path d="M0 0 C-2.39175361 1.01085436 -4.78761585 2.00879203 -7.1875 3 C-7.86103516 3.28617188 -8.53457031 3.57234375 -9.22851562 3.8671875 C-12.94993794 5.39206299 -15.96471408 6.37610432 -20 6 C-17.24643427 4.16428952 -15.0804131 3.13841354 -12 2 C-11.2678125 1.72671875 -10.535625 1.4534375 -9.78125 1.171875 C-8.9871875 0.88828125 -8.193125 0.6046875 -7.375 0.3125 C-6.61960938 0.04050781 -5.86421875 -0.23148438 -5.0859375 -0.51171875 C-3 -1 -3 -1 0 0 Z " fill="#C84540" transform="translate(180,235)"/>
<path d="M0 0 C0.66 0.33 1.32 0.66 2 1 C2 1.66 2 2.32 2 3 C1.01 3.33 0.02 3.66 -1 4 C-2.71108689 5.62102968 -4.37253306 7.29503463 -6 9 C-7.66666667 10.66666667 -9.33333333 12.33333333 -11 14 C-11.66 13.34 -12.32 12.68 -13 12 C-12.48050781 11.55269531 -11.96101562 11.10539062 -11.42578125 10.64453125 C-7.47320346 7.21798969 -3.64172918 3.75553321 0 0 Z " fill="#FCE0D9" transform="translate(146,105)"/>
<path d="M0 0 C0.66 0.33 1.32 0.66 2 1 C2.20140476 4.62528568 1.85776765 6.86501708 0 10 C0.99 11.485 0.99 11.485 2 13 C1.01 13.495 1.01 13.495 0 14 C0 13.34 0 12.68 0 12 C-0.66 12 -1.32 12 -2 12 C-2.33 9.69 -2.66 7.38 -3 5 C-2.01 5 -1.02 5 0 5 C0 3.35 0 1.7 0 0 Z " fill="#D84B41" transform="translate(88,93)"/>
<path d="M0 0 C0 3.69840628 -0.82866944 4.31415433 -3.25 7 C-4.15492188 8.0209375 -4.15492188 8.0209375 -5.078125 9.0625 C-6.93766612 10.93715934 -8.84794211 12.47641919 -11 14 C-9.63055898 11.05043472 -8.12169591 8.47531189 -6 6 C-5.34 6 -4.68 6 -4 6 C-4.33 4.68 -4.66 3.36 -5 2 C-3.35 1.34 -1.7 0.68 0 0 Z " fill="#C83D3B" transform="translate(219,202)"/>
<path d="M0 0 C0.99 0 1.98 0 3 0 C3.33 0.66 3.66 1.32 4 2 C4.99 2.33 5.98 2.66 7 3 C7 3.66 7 4.32 7 5 C7.99 5.33 8.98 5.66 10 6 C10.33 7.65 10.66 9.3 11 11 C5.87220625 8.01872456 3.24730231 4.96646236 0 0 Z " fill="#FAF0E3" transform="translate(145,160)"/>
<path d="M0 0 C0.66 0 1.32 0 2 0 C2.226875 0.804375 2.45375 1.60875 2.6875 2.4375 C3.120625 3.283125 3.55375 4.12875 4 5 C6.54775306 5.89386164 6.54775306 5.89386164 9 6 C9 7.32 9 8.64 9 10 C5.78956118 8.61811547 3.95063635 7.07578097 1.75 4.375 C1.22921875 3.74335938 0.7084375 3.11171875 0.171875 2.4609375 C-0.21484375 1.97882813 -0.6015625 1.49671875 -1 1 C-0.67 0.67 -0.34 0.34 0 0 Z " fill="#D7544E" transform="translate(52,207)"/>
<path d="M0 0 C2.12508244 3.18762365 2.5020163 5.26512223 3 9 C2.01 9.33 1.02 9.66 0 10 C-0.66 10.99 -1.32 11.98 -2 13 C-2 10.36 -2 7.72 -2 5 C-1.34 5 -0.68 5 0 5 C0 3.35 0 1.7 0 0 Z " fill="#E24A46" transform="translate(236,91)"/>
<path d="M0 0 C0.66 0.33 1.32 0.66 2 1 C0.68 4.3 -0.64 7.6 -2 11 C-4.56687367 7.1496895 -3.83288724 5.41430237 -3 1 C-2.01 0.67 -1.02 0.34 0 0 Z " fill="#FDEBE6" transform="translate(30,88)"/>
<path d="M0 0 C0.66 0 1.32 0 2 0 C2 0.99 2 1.98 2 3 C2.66 3 3.32 3 4 3 C3.67 4.32 3.34 5.64 3 7 C1.35 6.67 -0.3 6.34 -2 6 C-2.33 5.01 -2.66 4.02 -3 3 C-2.01 2.67 -1.02 2.34 0 2 C0 1.34 0 0.68 0 0 Z " fill="#EB4527" transform="translate(171,178)"/>
<path d="M0 0 C0.33 0.66 0.66 1.32 1 2 C-0.1875 4.5625 -0.1875 4.5625 -2 7 C-3.32594105 7.36162029 -4.65938457 7.69728039 -6 8 C-7.28436734 9.9837767 -7.28436734 9.9837767 -8 12 C-8 8 -8 8 -6.25 5.859375 C-5.5075 5.16328125 -4.765 4.4671875 -4 3.75 C-3.2575 3.04359375 -2.515 2.3371875 -1.75 1.609375 C-1.1725 1.07828125 -0.595 0.5471875 0 0 Z " fill="#FDE3D7" transform="translate(96,92)"/>
<path d="M0 0 C-0.625 1.875 -0.625 1.875 -2 4 C-5.89680529 5.68271138 -9.81148536 6.40164077 -14 7 C-10.33997803 3.94998169 -4.92148529 0 0 0 Z " fill="#F9D9CD" transform="translate(190,230)"/>
<path d="M0 0 C2.33944736 0.28730055 4.6739143 0.61936779 7 1 C3.8745041 3.64465038 0.91211733 4.84414715 -3 6 C-1.125 1.125 -1.125 1.125 0 0 Z " fill="#DD3B3D" transform="translate(183,228)"/>
<path d="M0 0 C1.65 0 3.3 0 5 0 C5 0.66 5 1.32 5 2 C5.66 2.33 6.32 2.66 7 3 C7 3.66 7 4.32 7 5 C7.66 5 8.32 5 9 5 C8.67 6.32 8.34 7.64 8 9 C6.66368764 7.6905332 5.33102075 6.37734515 4 5.0625 C3.2575 4.33160156 2.515 3.60070312 1.75 2.84765625 C0 1 0 1 0 0 Z " fill="#FAF2E4" transform="translate(103,118)"/>
<path d="M0 0 C0.66 0.33 1.32 0.66 2 1 C-0.3125 3.5 -0.3125 3.5 -3 6 C-3.99 6 -4.98 6 -6 6 C-6.33 6.99 -6.66 7.98 -7 9 C-7.66 9 -8.32 9 -9 9 C-6.99337736 4.52368795 -4.64582071 1.79838221 0 0 Z " fill="#FCE8DE" transform="translate(227,198)"/>
<path d="M0 0 C0.66 0 1.32 0 2 0 C2 0.66 2 1.32 2 2 C2.66 2 3.32 2 4 2 C6.1385485 4.1385485 6.42655063 5.13275314 7 8 C7.66 8 8.32 8 9 8 C8.67 8.99 8.34 9.98 8 11 C4.31993178 7.61831569 2.0214155 4.57478244 0 0 Z " fill="#D3514C" transform="translate(40,193)"/>
<path d="M0 0 C-1.11666174 3.34998521 -1.74694925 3.79340222 -4.5625 5.6875 C-5.20316406 6.12449219 -5.84382813 6.56148437 -6.50390625 7.01171875 C-6.99761719 7.33785156 -7.49132812 7.66398438 -8 8 C-9 6 -9 6 -8.375 4 C-6.3120954 0.99941149 -3.6073322 0 0 0 Z " fill="#F7EDE3" transform="translate(120,162)"/>
<path d="M0 0 C1.32 0.66 2.64 1.32 4 2 C4 3.32 4 4.64 4 6 C2.125 6.625 2.125 6.625 0 7 C-0.66 6.34 -1.32 5.68 -2 5 C-1.34 3.35 -0.68 1.7 0 0 Z " fill="#FC3D3B" transform="translate(183,162)"/>
<path d="M0 0 C2 3.75 2 3.75 2 6 C1.2575 6.144375 0.515 6.28875 -0.25 6.4375 C-2.52027739 6.90187492 -4.75759479 7.41863569 -7 8 C-5.71937515 6.2925002 -4.38232443 4.62626404 -3 3 C-2.34 3 -1.68 3 -1 3 C-0.67 2.01 -0.34 1.02 0 0 Z " fill="#E25454" transform="translate(129,153)"/>
<path d="M0 0 C0.99 0.33 1.98 0.66 3 1 C0.14723863 3.93200474 -2.65079784 6.64315404 -6 9 C-5.25 4.25 -5.25 4.25 -3 2 C-2.01 2 -1.02 2 0 2 C0 1.34 0 0.68 0 0 Z " fill="#FCEDE5" transform="translate(159,120)"/>
<path d="M0 0 C0.433125 0.474375 0.86625 0.94875 1.3125 1.4375 C3.02309613 3.23686957 3.02309613 3.23686957 6 4 C5.67 5.65 5.34 7.3 5 9 C4.34 9 3.68 9 3 9 C1.68 6.36 0.36 3.72 -1 1 C-0.67 0.67 -0.34 0.34 0 0 Z " fill="#FCE1DD" transform="translate(222,63)"/>
<path d="M0 0 C0.33 0.66 0.66 1.32 1 2 C2.65 1.67 4.3 1.34 6 1 C6.99 2.65 7.98 4.3 9 6 C5.80389448 6 4.58282374 5.45328458 1.8125 4 C1.09707031 3.62875 0.38164062 3.2575 -0.35546875 2.875 C-0.89816406 2.58625 -1.44085938 2.2975 -2 2 C-1.34 1.34 -0.68 0.68 0 0 Z " fill="#FAE2D9" transform="translate(184,32)"/>
<path d="M0 0 C0.33 1.32 0.66 2.64 1 4 C-2.75 7 -2.75 7 -5 7 C-5 7.99 -5 8.98 -5 10 C-6.32 9.67 -7.64 9.34 -9 9 C-8.51789063 8.60167969 -8.03578125 8.20335937 -7.5390625 7.79296875 C-6.90742187 7.26316406 -6.27578125 6.73335937 -5.625 6.1875 C-4.99851562 5.66542969 -4.37203125 5.14335937 -3.7265625 4.60546875 C-1.7778952 2.91774261 -1.7778952 2.91774261 0 0 Z " fill="#D65955" transform="translate(121,161)"/>
<path d="M0 0 C3.36720387 1.39332574 4.9859524 2.9789286 7 6 C6.01 6 5.02 6 4 6 C3.34 5.34 2.68 4.68 2 4 C-1.09926819 4.32198966 -1.09926819 4.32198966 -4 5 C-2.68 3.35 -1.36 1.7 0 0 Z " fill="#FDE7D8" transform="translate(101,87)"/>
<path d="M0 0 C1.31611677 0.95336021 2.62778961 1.91285774 3.9375 2.875 C4.66839844 3.40867188 5.39929687 3.94234375 6.15234375 4.4921875 C8 6 8 6 9 8 C6.25 7.875 6.25 7.875 3 7 C0.625 3.9375 0.625 3.9375 -1 1 C-0.67 0.67 -0.34 0.34 0 0 Z " fill="#FBE3D8" transform="translate(55,213)"/>
<path d="M0 0 C0.36625971 4.51720311 0.36625971 4.51720311 -1.375 6.8125 C-3 8 -3 8 -5 8 C-4.6875 5.125 -4.6875 5.125 -4 2 C-1 0 -1 0 0 0 Z " fill="#F93B3A" transform="translate(232,179)"/>
<path d="M0 0 C1.17539996 0.92652701 2.34010577 1.86663387 3.5 2.8125 C4.1496875 3.33457031 4.799375 3.85664062 5.46875 4.39453125 C7 6 7 6 7 9 C5 9 5 9 2.375 6.75 C0 4 0 4 0 0 Z " fill="#DA5553" transform="translate(103,119)"/>
<path d="M0 0 C0.99 0.66 1.98 1.32 3 2 C0.42215154 4.64752004 -1.91648098 6.94432065 -5 9 C-5.33 8.01 -5.66 7.02 -6 6 C-4.68 5.67 -3.36 5.34 -2 5 C-2 4.01 -2 3.02 -2 2 C-1.34 2 -0.68 2 0 2 C0 1.34 0 0.68 0 0 Z " fill="#F9EFE6" transform="translate(168,110)"/>
<path d="M0 0 C2.97 0.495 2.97 0.495 6 1 C4.35 2.65 2.7 4.3 1 6 C0.01 5.34 -0.98 4.68 -2 4 C-1.67 3.34 -1.34 2.68 -1 2 C-0.34 2.33 0.32 2.66 1 3 C0.67 2.01 0.34 1.02 0 0 Z " fill="#E04844" transform="translate(139,105)"/>
<path d="M0 0 C0.66 0.33 1.32 0.66 2 1 C0.8572081 2.16964602 -0.28931715 3.33564556 -1.4375 4.5 C-2.07558594 5.1496875 -2.71367187 5.799375 -3.37109375 6.46875 C-5 8 -5 8 -6 8 C-6 6.35 -6 4.7 -6 3 C-4.03533587 1.93224776 -2.03144641 0.93446535 0 0 Z " fill="#CD4B43" transform="translate(158,91)"/>
<path d="M0 0 C0.66 0.33 1.32 0.66 2 1 C1.67 2.32 1.34 3.64 1 5 C0.01 4.67 -0.98 4.34 -2 4 C-1.34 2.68 -0.68 1.36 0 0 Z M-4 4 C-3.34 4.33 -2.68 4.66 -2 5 C-2.33 6.32 -2.66 7.64 -3 9 C-3.99 9 -4.98 9 -6 9 C-5.125 5.125 -5.125 5.125 -4 4 Z " fill="#F0FDF5" transform="translate(214,212)"/>
<path d="M0 0 C2.54384726 1.27192363 2.69368156 2.19948469 3.6875 4.8125 C3.95949219 5.49957031 4.23148438 6.18664062 4.51171875 6.89453125 C5.06812731 9.29376496 4.77364938 10.6894364 4 13 C1.99706653 9.99559979 1.50728374 8.29006055 0.875 4.8125 C0.70742188 3.91144531 0.53984375 3.01039063 0.3671875 2.08203125 C0.24601562 1.39496094 0.12484375 0.70789063 0 0 Z " fill="#D65152" transform="translate(26,160)"/>
<path d="M0 0 C1.17539996 0.92652701 2.34010577 1.86663387 3.5 2.8125 C4.1496875 3.33457031 4.799375 3.85664062 5.46875 4.39453125 C7 6 7 6 7 9 C6.01 8.67 5.02 8.34 4 8 C4 7.01 4 6.02 4 5 C2.68 4.67 1.36 4.34 0 4 C0 2.68 0 1.36 0 0 Z " fill="#D85556" transform="translate(95,111)"/>
<path d="M0 0 C0 0.66 0 1.32 0 2 C1.32 2.33 2.64 2.66 4 3 C4.33 4.65 4.66 6.3 5 8 C2.5 6.625 2.5 6.625 0 5 C0 4.34 0 3.68 0 3 C-1.32 2.34 -2.64 1.68 -4 1 C-2 0 -2 0 0 0 Z " fill="#FAE2DB" transform="translate(197,38)"/>
<path d="M0 0 C2.475 0.495 2.475 0.495 5 1 C5 2.32 5 3.64 5 5 C3.35 4.67 1.7 4.34 0 4 C0 2.68 0 1.36 0 0 Z " fill="#FC3B3B" transform="translate(163,182)"/>
<path d="M0 0 C2.4375 0.8125 2.4375 0.8125 5 2 C5.33 2.99 5.66 3.98 6 5 C8.00016466 6.20882096 8.00016466 6.20882096 10 7 C9.34 7.66 8.68 8.32 8 9 C6.66368764 7.6905332 5.33102075 6.37734515 4 5.0625 C3.2575 4.33160156 2.515 3.60070312 1.75 2.84765625 C0 1 0 1 0 0 Z " fill="#CE5A4F" transform="translate(150,134)"/>
<path d="M0 0 C2.0625 0.4375 2.0625 0.4375 4 1 C3.67 2.32 3.34 3.64 3 5 C1.68 5.33 0.36 5.66 -1 6 C-1.042721 4.33388095 -1.04063832 2.66617115 -1 1 C-0.67 0.67 -0.34 0.34 0 0 Z " fill="#E8472E" transform="translate(169,118)"/>
<path d="M0 0 C0.66 0.99 1.32 1.98 2 3 C1.67 3.99 1.34 4.98 1 6 C0.34 5.34 -0.32 4.68 -1 4 C-1.99 5.485 -1.99 5.485 -3 7 C-3.99 6.34 -4.98 5.68 -6 5 C-4.02 3.35 -2.04 1.7 0 0 Z " fill="#DC5750" transform="translate(62,48)"/>
<path d="M0 0 C1.65 0 3.3 0 5 0 C2.19195732 2.96404505 -0.18315774 5.44499019 -4 7 C-3.67 5.35 -3.34 3.7 -3 2 C-2.01 2 -1.02 2 0 2 C0 1.34 0 0.68 0 0 Z " fill="#FBEFE6" transform="translate(62,44)"/>
<path d="M0 0 C1.32 0 2.64 0 4 0 C4 0.66 4 1.32 4 2 C5.98 2 7.96 2 10 2 C9.01 2.495 9.01 2.495 8 3 C8 3.66 8 4.32 8 5 C2.25 3.125 2.25 3.125 0 2 C0 1.34 0 0.68 0 0 Z " fill="#D95953" transform="translate(82,231)"/>
<path d="M0 0 C4.95696581 1.23924145 7.11658466 2.78577758 10 7 C5.61308455 6.49381745 3.15608721 3.86917019 0 1 C0 0.67 0 0.34 0 0 Z " fill="#CC4E47" transform="translate(61,217)"/>
<path d="M0 0 C0.66 1.32 1.32 2.64 2 4 C-1.75 7 -1.75 7 -4 7 C-2.92598892 4.08482708 -2.22189824 2.22189824 0 0 Z " fill="#DA5354" transform="translate(110,172)"/>
<path d="M0 0 C0.80824219 0.10183594 1.61648437 0.20367188 2.44921875 0.30859375 C3.06410156 0.39238281 3.67898437 0.47617187 4.3125 0.5625 C4.3125 0.8925 4.3125 1.2225 4.3125 1.5625 C-0.3075 2.2225 -4.9275 2.8825 -9.6875 3.5625 C-6.85229083 -0.69031375 -4.73676619 -0.61783907 0 0 Z " fill="#FDE4DE" transform="translate(119.6875,21.4375)"/>
<path d="M0 0 C1.32 0.33 2.64 0.66 4 1 C0.535 3.97 0.535 3.97 -3 7 C-3.33 6.01 -3.66 5.02 -4 4 C-2.25 1.9375 -2.25 1.9375 0 0 Z " fill="#FBF0E6" transform="translate(173,168)"/>
<path d="M0 0 C0.66 1.32 1.32 2.64 2 4 C-0.3125 5.5625 -0.3125 5.5625 -3 7 C-3.99 6.67 -4.98 6.34 -6 6 C-4.02 4.02 -2.04 2.04 0 0 Z " fill="#D85C5C" transform="translate(174,108)"/>
<path d="M0 0 C1.65 0 3.3 0 5 0 C3.1875 2.5 3.1875 2.5 1 5 C0.01 5 -0.98 5 -2 5 C-1.34 3.35 -0.68 1.7 0 0 Z " fill="#DE4D47" transform="translate(177,105)"/>
<path d="M0 0 C0.33 0 0.66 0 1 0 C1.33 2.97 1.66 5.94 2 9 C-1.81538462 6.53846154 -1.81538462 6.53846154 -2.75 3.8125 C-2.8325 3.214375 -2.915 2.61625 -3 2 C-2.01 2 -1.02 2 0 2 C0 1.34 0 0.68 0 0 Z " fill="#DE5044" transform="translate(175,89)"/>
<path d="M0 0 C2.31 1.98 4.62 3.96 7 6 C6.67 6.66 6.34 7.32 6 8 C5.34 8 4.68 8 4 8 C4 7.34 4 6.68 4 6 C3.34 6 2.68 6 2 6 C1.34 4.02 0.68 2.04 0 0 Z " fill="#D75756" transform="translate(143,159)"/>
<path d="M0 0 C0.66 0.66 1.32 1.32 2 2 C1.01 2.66 0.02 3.32 -1 4 C-1.33 4.99 -1.66 5.98 -2 7 C-3.65 7.33 -5.3 7.66 -7 8 C-6.02133662 6.85373678 -5.04205413 5.70800212 -4.0625 4.5625 C-3.51722656 3.92441406 -2.97195312 3.28632813 -2.41015625 2.62890625 C-1.63204305 1.73008851 -0.84063472 0.84063472 0 0 Z " fill="#FBE8DA" transform="translate(110,141)"/>
<path d="M0 0 C2.475 0.99 2.475 0.99 5 2 C5 2.66 5 3.32 5 4 C5.99 4 6.98 4 8 4 C7.67 5.32 7.34 6.64 7 8 C5.83035398 6.8572081 4.66435444 5.71068285 3.5 4.5625 C2.8503125 3.92441406 2.200625 3.28632812 1.53125 2.62890625 C0 1 0 1 0 0 Z " fill="#D45855" transform="translate(119,103)"/>
<path d="M0 0 C0.66 0.99 1.32 1.98 2 3 C1.01 3 0.02 3 -1 3 C-1.2475 3.639375 -1.495 4.27875 -1.75 4.9375 C-3 7 -3 7 -5.078125 7.62890625 C-5.71234375 7.75136719 -6.3465625 7.87382813 -7 8 C-6.02133662 6.85373678 -5.04205413 5.70800212 -4.0625 4.5625 C-3.51722656 3.92441406 -2.97195312 3.28632812 -2.41015625 2.62890625 C-1.63204305 1.73008851 -0.84063472 0.84063472 0 0 Z " fill="#FCE7DB" transform="translate(154,97)"/>
<path d="M0 0 C2.475 0.99 2.475 0.99 5 2 C5 2.66 5 3.32 5 4 C6.32 4.66 7.64 5.32 9 6 C8.34 6.66 7.68 7.32 7 8 C5.83035398 6.8572081 4.66435444 5.71068285 3.5 4.5625 C2.8503125 3.92441406 2.200625 3.28632812 1.53125 2.62890625 C0 1 0 1 0 0 Z " fill="#D25858" transform="translate(111,95)"/>
<path d="M0 0 C2.11180592 2.57089417 3.66306057 4.63060567 4 8 C3.34 8.66 2.68 9.32 2 10 C1.87625 9.360625 1.7525 8.72125 1.625 8.0625 C1.315625 7.0415625 1.315625 7.0415625 1 6 C0.34 5.67 -0.32 5.34 -1 5 C-0.67 3.35 -0.34 1.7 0 0 Z " fill="#D75A55" transform="translate(232,82)"/>
<path d="M0 0 C2.475 0.495 2.475 0.495 5 1 C4.34 2.65 3.68 4.3 3 6 C2.01 5.34 1.02 4.68 0 4 C0 2.68 0 1.36 0 0 Z " fill="#F53A39" transform="translate(205,211)"/>
<path d="M0 0 C0.33 1.32 0.66 2.64 1 4 C0.34 4 -0.32 4 -1 4 C-1 4.99 -1 5.98 -1 7 C-2.32 6.34 -3.64 5.68 -5 5 C-3.35 3.35 -1.7 1.7 0 0 Z " fill="#D85A58" transform="translate(175,170)"/>
<path d="M0 0 C2.31 1.98 4.62 3.96 7 6 C6.01 6.495 6.01 6.495 5 7 C2.375 5.8125 2.375 5.8125 0 4 C0 2.68 0 1.36 0 0 Z " fill="#FBF1E6" transform="translate(170,155)"/>
<path d="M0 0 C2.88437779 1.29299694 4.87219421 2.65941363 7 5 C6.34 5.66 5.68 6.32 5 7 C3.29115995 5.37660195 1.62553283 3.70680947 0 2 C0 1.34 0 0.68 0 0 Z " fill="#D85251" transform="translate(164,147)"/>
<path d="M0 0 C2.31 1.98 4.62 3.96 7 6 C6.01 6.33 5.02 6.66 4 7 C3.01 6.34 2.02 5.68 1 5 C1 4.01 1 3.02 1 2 C0.34 1.67 -0.32 1.34 -1 1 C-0.67 0.67 -0.34 0.34 0 0 Z " fill="#FDECE0" transform="translate(153,138)"/>
<path d="M0 0 C0.33 0.99 0.66 1.98 1 3 C-0.65 4.32 -2.3 5.64 -4 7 C-4.6875 5.1875 -4.6875 5.1875 -5 3 C-3.38441968 0.84589291 -2.74502455 0 0 0 Z " fill="#EEFDFB" transform="translate(157,119)"/>
<path d="M0 0 C2 1 2 1 3.125 4.0625 C3.41375 5.031875 3.7025 6.00125 4 7 C3.01 7 2.02 7 1 7 C0.34 6.34 -0.32 5.68 -1 5 C-0.625 2.375 -0.625 2.375 0 0 Z " fill="#FAF3E5" transform="translate(90,100)"/>
<path d="M0 0 C1.32 0 2.64 0 4 0 C4 1.65 4 3.3 4 5 C2.68 4.67 1.36 4.34 0 4 C0 2.68 0 1.36 0 0 Z " fill="#FD3B35" transform="translate(183,99)"/>
<path d="M0 0 C0.598125 0.350625 1.19625 0.70125 1.8125 1.0625 C-2.9375 4.0625 -2.9375 4.0625 -5.1875 4.0625 C-5.1875 2.7425 -5.1875 1.4225 -5.1875 0.0625 C-2.1875 -0.9375 -2.1875 -0.9375 0 0 Z " fill="#FAEEE1" transform="translate(77.1875,35.9375)"/>
<path d="M0 0 C0.33 0.66 0.66 1.32 1 2 C-5.93 1.505 -5.93 1.505 -13 1 C-13 0.67 -13 0.34 -13 0 C-11.39679026 -0.19551338 -9.79237014 -0.38111983 -8.1875 -0.5625 C-7.29417969 -0.66691406 -6.40085938 -0.77132813 -5.48046875 -0.87890625 C-3 -1 -3 -1 0 0 Z " fill="#FAD0CA" transform="translate(152,22)"/>
<path d="M0 0 C2.3129482 2.3129482 2.49580975 3.47904875 3.125 6.625 C3.29257812 7.44226563 3.46015625 8.25953125 3.6328125 9.1015625 C3.81457031 10.04128906 3.81457031 10.04128906 4 11 C1.35534962 7.8745041 0.15585285 4.91211733 -1 1 C-0.67 0.67 -0.34 0.34 0 0 Z " fill="#D2534E" transform="translate(31,173)"/>
<path d="M0 0 C0.33 0.99 0.66 1.98 1 3 C0.01 3.33 -0.98 3.66 -2 4 C-2 4.66 -2 5.32 -2 6 C-3.65 6.66 -5.3 7.32 -7 8 C-6.02133662 6.85373678 -5.04205413 5.70800212 -4.0625 4.5625 C-3.51722656 3.92441406 -2.97195312 3.28632813 -2.41015625 2.62890625 C-1.63204305 1.73008851 -0.84063472 0.84063472 0 0 Z " fill="#FEE7DE" transform="translate(96,155)"/>
<path d="M0 0 C1.65 1.65 3.3 3.3 5 5 C4.67 5.99 4.34 6.98 4 8 C0.125 5.375 0.125 5.375 -1 2 C-0.67 1.34 -0.34 0.68 0 0 Z " fill="#F54040" transform="translate(119,97)"/>
<path d="M0 0 C0.66 0.66 1.32 1.32 2 2 C1.625 5.625 1.625 5.625 1 9 C0.01 8.67 -0.98 8.34 -2 8 C-1.34 5.36 -0.68 2.72 0 0 Z " fill="#DD6461" transform="translate(28,96)"/>
<path d="M0 0 C1.32 0.66 2.64 1.32 4 2 C3.34 2 2.68 2 2 2 C2.99 2.99 3.98 3.98 5 5 C4.67 5.66 4.34 6.32 4 7 C2.35 5.35 0.7 3.7 -1 2 C-0.67 1.34 -0.34 0.68 0 0 Z " fill="#F7DBD2" transform="translate(95,171)"/>
<path d="M0 0 C2 3 2 3 2 5 C-0.31 5 -2.62 5 -5 5 C-3.35 3.35 -1.7 1.7 0 0 Z " fill="#D65447" transform="translate(181,165)"/>
<path d="M0 0 C1.32 0 2.64 0 4 0 C4.33 0.66 4.66 1.32 5 2 C4.67 2.99 4.34 3.98 4 5 C2.68 4.67 1.36 4.34 0 4 C0 2.68 0 1.36 0 0 Z " fill="#E24038" transform="translate(130,153)"/>
<path d="M0 0 C2.62187494 1.04874998 3.79371361 1.64931313 5.25 4.125 C5.4975 4.74375 5.745 5.3625 6 6 C3.5625 5.25 3.5625 5.25 1 4 C0.1875 1.875 0.1875 1.875 0 0 Z " fill="#F8DDD2" transform="translate(160,145)"/>
<path d="M0 0 C0 3 0 3 -1 6 C-2.65 6.33 -4.3 6.66 -6 7 C-4.02 4.69 -2.04 2.38 0 0 Z " fill="#FEE4E1" transform="translate(117,134)"/>
<path d="M0 0 C1.98 1.65 3.96 3.3 6 5 C4.68 5.33 3.36 5.66 2 6 C1.87625 5.360625 1.7525 4.72125 1.625 4.0625 C1.315625 3.0415625 1.315625 3.0415625 1 2 C0.34 1.67 -0.32 1.34 -1 1 C-0.67 0.67 -0.34 0.34 0 0 Z " fill="#F9F3E6" transform="translate(117,102)"/>
</svg>
