<?xml version="1.0" encoding="UTF-8"?>
<svg version="1.1" xmlns="http://www.w3.org/2000/svg" width="60" height="60">
<path d="M0 0 C7.38423483 4.50196009 12.54565056 10.92917609 15.375 19.0625 C16.66547092 27.62954236 16.65351723 37.4125029 12.05859375 44.94921875 C6.93342722 51.38243242 0.72308177 57.1062756 -7.7109375 58.37670898 C-16.98411337 59.03300598 -26.05696622 59.09174687 -33.625 53.0625 C-39.76140823 47.41193476 -44.48470943 41.39843293 -45.09375 32.79296875 C-45.32785576 22.52143833 -44.7812261 14.66206517 -37.53515625 6.79296875 C-27.64926916 -2.58594978 -12.80066946 -5.75333355 0 0 Z " fill="#E18E2C" transform="translate(44.625,1.9375)"/>
<path d="M0 0 C3.35386879 0.64894025 5.01308758 1.78607812 7.16015625 4.41796875 C7.78515625 7.35546875 7.78515625 7.35546875 7.16015625 10.41796875 C4.78515625 13.16796875 4.78515625 13.16796875 2.16015625 15.41796875 C-0.19937469 17.77749969 -0.33125788 19.19692492 -0.83984375 22.41796875 C-2.15984375 22.41796875 -3.47984375 22.41796875 -4.83984375 22.41796875 C-4.22894149 15.94240484 -4.22894149 15.94240484 -2.40234375 13.48046875 C-0.83984375 12.41796875 -0.83984375 12.41796875 1.16015625 12.41796875 C1.49015625 10.10796875 1.82015625 7.79796875 2.16015625 5.41796875 C-3.12183968 4.2180883 -3.12183968 4.2180883 -7.83984375 6.41796875 C-10.02734375 6.04296875 -10.02734375 6.04296875 -11.83984375 5.41796875 C-8.23162111 0.7621976 -5.68351836 -0.35106875 0 0 Z " fill="#FCF49B" transform="translate(31.83984375,12.58203125)"/>
<path d="M0 0 C1.65 0.33 3.3 0.66 5 1 C4.67 2.65 4.34 4.3 4 6 C2.35 5.67 0.7 5.34 -1 5 C-0.67 3.35 -0.34 1.7 0 0 Z " fill="#FBF49A" transform="translate(27,40)"/>
</svg>
