<?xml version="1.0" encoding="UTF-8"?>
<svg version="1.1" xmlns="http://www.w3.org/2000/svg" width="60" height="60">
<path d="M0 0 C7.38423483 4.50196009 12.54565056 10.92917609 15.375 19.0625 C16.66547092 27.62954236 16.65351723 37.4125029 12.05859375 44.94921875 C6.93342722 51.38243242 0.72308177 57.1062756 -7.7109375 58.37670898 C-16.98411337 59.03300598 -26.05696622 59.09174687 -33.625 53.0625 C-39.76140823 47.41193476 -44.48470943 41.39843293 -45.09375 32.79296875 C-45.32785576 22.52143833 -44.7812261 14.66206517 -37.53515625 6.79296875 C-27.64926916 -2.58594978 -12.80066946 -5.75333355 0 0 Z " fill="#BE1F1A" transform="translate(44.625,1.9375)"/>
<path d="M0 0 C3.35386879 0.64894025 5.01308758 1.78607812 7.16015625 4.41796875 C7.78515625 7.35546875 7.78515625 7.35546875 7.16015625 10.41796875 C4.78515625 13.16796875 4.78515625 13.16796875 2.16015625 15.41796875 C-0.19937469 17.77749969 -0.33125788 19.19692492 -0.83984375 22.41796875 C-2.15984375 22.41796875 -3.47984375 22.41796875 -4.83984375 22.41796875 C-5.27734375 19.79296875 -5.27734375 19.79296875 -4.83984375 16.41796875 C-3.13938579 14.71751079 -1.30933371 13.33220254 0.6015625 11.875 C2.46072394 10.43852551 2.46072394 10.43852551 2.59765625 7.54296875 C2.45328125 6.84171875 2.30890625 6.14046875 2.16015625 5.41796875 C-3.12183968 4.2180883 -3.12183968 4.2180883 -7.83984375 6.41796875 C-10.02734375 6.04296875 -10.02734375 6.04296875 -11.83984375 5.41796875 C-8.23162111 0.7621976 -5.68351836 -0.35106875 0 0 Z " fill="#FAEF9C" transform="translate(41.83984375,12.58203125)"/>
<path d="M0 0 C3.0625 1.625 3.0625 1.625 5 4 C5.74469524 7.88896403 5.37054076 9.43780022 3.1875 12.75 C1 15 1 15 -2 17 C-2.72965366 19.56282742 -2.72965366 19.56282742 -3 22 C-4.32 22 -5.64 22 -7 22 C-7.4375 19.375 -7.4375 19.375 -7 16 C-5.29954204 14.29954204 -3.46948996 12.91423379 -1.55859375 11.45703125 C0.30056769 10.02055676 0.30056769 10.02055676 0.4375 7.125 C0.293125 6.42375 0.14875 5.7225 0 5 C-4.71599818 4.07529447 -7.67265609 3.77076223 -12 6 C-12 4.68 -12 3.36 -12 2 C-7.96243569 -0.69170954 -4.74077282 -0.66420635 0 0 Z " fill="#F9EC9A" transform="translate(24,13)"/>
<path d="M0 0 C1.65 0.33 3.3 0.66 5 1 C4.67 2.65 4.34 4.3 4 6 C2.35 5.67 0.7 5.34 -1 5 C-0.67 3.35 -0.34 1.7 0 0 Z " fill="#F8E798" transform="translate(37,40)"/>
<path d="M0 0 C1.65 0.33 3.3 0.66 5 1 C4.67 2.65 4.34 4.3 4 6 C2.35 5.67 0.7 5.34 -1 5 C-0.67 3.35 -0.34 1.7 0 0 Z " fill="#F8E898" transform="translate(17,40)"/>
<path d="M0 0 C0 0.33 0 0.66 0 1 C-2.64 1.33 -5.28 1.66 -8 2 C-7.67 2.66 -7.34 3.32 -7 4 C-10 6 -10 6 -12.1875 5.625 C-12.785625 5.41875 -13.38375 5.2125 -14 5 C-9.74404706 -0.49155218 -6.48540926 -0.63582444 0 0 Z " fill="#F3D88E" transform="translate(44,13)"/>
</svg>
