<?xml version="1.0" encoding="UTF-8"?>
<svg version="1.1" xmlns="http://www.w3.org/2000/svg" width="60" height="60">
<path d="M0 0 C7.38423483 4.50196009 12.54565056 10.92917609 15.375 19.0625 C16.66547092 27.62954236 16.65351723 37.4125029 12.05859375 44.94921875 C6.93342722 51.38243242 0.72308177 57.1062756 -7.7109375 58.37670898 C-16.98411337 59.03300598 -26.05696622 59.09174687 -33.625 53.0625 C-39.76140823 47.41193476 -44.48470943 41.39843293 -45.09375 32.79296875 C-45.32785576 22.52143833 -44.7812261 14.66206517 -37.53515625 6.79296875 C-27.64926916 -2.58594978 -12.80066946 -5.75333355 0 0 Z " fill="#87735E" transform="translate(44.625,1.9375)"/>
<path d="M0 0 C0.9583374 0.00523682 1.9166748 0.01047363 2.90405273 0.01586914 C3.83548096 0.0183667 4.76690918 0.02086426 5.7265625 0.0234375 C7.51404907 0.03709351 7.51404907 0.03709351 9.33764648 0.05102539 C13.11202148 0.07165039 16.88639648 0.09227539 20.77514648 0.11352539 C20.77514648 9.35352539 20.77514648 18.59352539 20.77514648 28.11352539 C12.85514648 28.44352539 4.93514648 28.77352539 -3.22485352 29.11352539 C-3.24776839 25.14415989 -3.26769366 21.17496219 -3.27978516 17.20556641 C-3.28482408 15.85432153 -3.29165529 14.50308213 -3.30029297 13.15185547 C-3.31237771 11.21332105 -3.3175518 9.27474739 -3.32250977 7.33618164 C-3.32774658 6.16837158 -3.3329834 5.00056152 -3.33837891 3.79736328 C-3.18462542 0.16249872 -3.18462542 0.16249872 0 0 Z " fill="#FDFDA5" transform="translate(21.224853515625,12.886474609375)"/>
<path d="M0 0 C0.33 0 0.66 0 1 0 C1.02465392 4.53897705 1.04283789 9.07791543 1.05493164 13.61694336 C1.0599714 15.16219766 1.0668032 16.70744716 1.07543945 18.25268555 C1.08752076 20.46925029 1.09323173 22.68575218 1.09765625 24.90234375 C1.10281754 25.5971434 1.10797882 26.29194305 1.11329651 27.00779724 C1.11349277 28.6722933 1.06189129 30.33665499 1 32 C-1.31705498 34.31705498 -6.62650712 33.57114077 -9.75 33.75 C-10.6575 33.81832031 -11.565 33.88664062 -12.5 33.95703125 C-13.38171875 34.00730469 -14.2634375 34.05757812 -15.171875 34.109375 C-15.9772168 34.16061523 -16.78255859 34.21185547 -17.61230469 34.26464844 C-20.84600589 33.90623002 -22.52344962 33.12008338 -25 31 C-25.56762695 27.99731445 -25.56762695 27.99731445 -25.48828125 24.36328125 C-25.47216797 23.06455078 -25.45605469 21.76582031 -25.43945312 20.42773438 C-25.39767609 19.05597301 -25.35535135 17.68422823 -25.3125 16.3125 C-25.28741745 14.92907618 -25.26460418 13.54560923 -25.24414062 12.16210938 C-25.18510827 8.77365236 -25.10280082 5.38736615 -25 2 C-24.67 2 -24.34 2 -24 2 C-23.67 10.58 -23.34 19.16 -23 28 C-15.41 28 -7.82 28 0 28 C0 18.76 0 9.52 0 0 Z " fill="#CDC588" transform="translate(42,13)"/>
<path d="M0 0 C0.99 0.33 1.98 0.66 3 1 C3 9.58 3 18.16 3 27 C9.27 27 15.54 27 22 27 C22 27.33 22 27.66 22 28 C14.41 28.33 6.82 28.66 -1 29 C-1.02291487 25.0306345 -1.04284015 21.0614368 -1.05493164 17.09204102 C-1.05997057 15.74079614 -1.06680177 14.38955674 -1.07543945 13.03833008 C-1.08752419 11.09979566 -1.09269828 9.161222 -1.09765625 7.22265625 C-1.10289307 6.05484619 -1.10812988 4.88703613 -1.11352539 3.68383789 C-1 1 -1 1 0 0 Z " fill="#D9D38F" transform="translate(19,13)"/>
<path d="M0 0 C4.62 0 9.24 0 14 0 C14 2.31 14 4.62 14 7 C9.38 7 4.76 7 0 7 C0 4.69 0 2.38 0 0 Z " fill="#B6AA7A" transform="translate(24,19)"/>
<path d="M0 0 C7.26 0 14.52 0 22 0 C22 0.99 22 1.98 22 3 C17.05 3 12.1 3 7 3 C7 2.34 7 1.68 7 1 C5.68 1 4.36 1 3 1 C3 1.66 3 2.32 3 3 C2.01 3 1.02 3 0 3 C0 2.01 0 1.02 0 0 Z " fill="#8A755E" transform="translate(19,41)"/>
<path d="M0 0 C3.63 0 7.26 0 11 0 C11 0.99 11 1.98 11 3 C7.37 3 3.74 3 0 3 C0 2.01 0 1.02 0 0 Z " fill="#FEFEA5" transform="translate(25,21)"/>
</svg>
