<?xml version="1.0" encoding="UTF-8"?>
<svg version="1.1" xmlns="http://www.w3.org/2000/svg" width="60" height="60">
<path d="M0 0 C7.38423483 4.50196009 12.54565056 10.92917609 15.375 19.0625 C16.66547092 27.62954236 16.65351723 37.4125029 12.05859375 44.94921875 C6.93342722 51.38243242 0.72308177 57.1062756 -7.7109375 58.37670898 C-16.98411337 59.03300598 -26.05696622 59.09174687 -33.625 53.0625 C-39.76140823 47.41193476 -44.48470943 41.39843293 -45.09375 32.79296875 C-45.32785576 22.52143833 -44.7812261 14.66206517 -37.53515625 6.79296875 C-27.64926916 -2.58594978 -12.80066946 -5.75333355 0 0 Z " fill="#6EA58E" transform="translate(44.625,1.9375)"/>
<path d="M0 0 C6.03331362 4.98404168 11.5184171 10.41915303 17 16 C15.64526876 19.02671229 14.1260408 21.12136806 11.77734375 23.453125 C11.15666016 24.071875 10.53597656 24.690625 9.89648438 25.328125 C9.25001953 25.96234375 8.60355469 26.5965625 7.9375 27.25 C7.28716797 27.8996875 6.63683594 28.549375 5.96679688 29.21875 C1.14034598 34 1.14034598 34 0 34 C0 31.36 0 28.72 0 26 C-5.61 26 -11.22 26 -17 26 C-17 20.06 -17 14.12 -17 8 C-11.39 8 -5.78 8 0 8 C0 5.36 0 2.72 0 0 Z " fill="#F9FBA4" transform="translate(30,13)"/>
</svg>
