<?xml version="1.0" encoding="UTF-8"?>
<svg version="1.1" xmlns="http://www.w3.org/2000/svg" width="60" height="60">
<path d="M0 0 C7.38423483 4.50196009 12.54565056 10.92917609 15.375 19.0625 C16.66547092 27.62954236 16.65351723 37.4125029 12.05859375 44.94921875 C6.93342722 51.38243242 0.72308177 57.1062756 -7.7109375 58.37670898 C-16.98411337 59.03300598 -26.05696622 59.09174687 -33.625 53.0625 C-39.76140823 47.41193476 -44.48470943 41.39843293 -45.09375 32.79296875 C-45.32785576 22.52143833 -44.7812261 14.66206517 -37.53515625 6.79296875 C-27.64926916 -2.58594978 -12.80066946 -5.75333355 0 0 Z " fill="#6EA58D" transform="translate(44.625,1.9375)"/>
<path d="M0 0 C-1.52465452 3.36046302 -3.50653759 6.07828151 -5.75 9 C-11.42631241 16.70577438 -15.38815927 25.171056 -19 34 C-21.23046875 33.93359375 -21.23046875 33.93359375 -24 33 C-25.68610601 30.67240863 -26.99686325 28.5814326 -28.3125 26.0625 C-28.67150391 25.41603516 -29.03050781 24.76957031 -29.40039062 24.10351562 C-32 19.33508929 -32 19.33508929 -32 17 C-28.47808373 17.26088269 -27.78724732 18.24314592 -25.375 21 C-24.59125 21.99 -23.8075 22.98 -23 24 C-22.34 24.33 -21.68 24.66 -21 25 C-20.76667969 24.1440625 -20.53335937 23.288125 -20.29296875 22.40625 C-18.84431969 18.58986939 -16.82172628 15.66504679 -14.3125 12.5 C-13.86841797 11.93192627 -13.42433594 11.36385254 -12.96679688 10.77856445 C-4.36752197 0 -4.36752197 0 0 0 Z " fill="#F2F7A3" transform="translate(46,13)"/>
</svg>
